<svg width="50" height="60" viewBox="0 0 50 60" fill="none" xmlns="http://www.w3.org/2000/svg">
<path d="M45.8517 57.4791H21.4644C20.4232 57.4791 19.5737 56.6296 19.5737 55.5884V50.0807C19.5737 49.7336 19.8569 49.4504 20.204 49.4504C20.5511 49.4504 20.8342 49.7336 20.8342 50.0807V55.5884C20.8342 55.9355 21.1173 56.2186 21.4644 56.2186H45.8517C46.1988 56.2186 46.4819 55.9355 46.4819 55.5884V25.2276C46.4819 24.8805 46.7651 24.5974 47.1122 24.5974C47.4593 24.5974 47.7424 24.8805 47.7424 25.2276V55.5975C47.7424 56.6388 46.893 57.4882 45.8517 57.4882V57.4791Z" fill="#F5B400"/>
<path d="M3.15116 0H29.8676C31.603 0 33.0187 1.4066 33.0187 3.15116V49.4139C33.0187 51.1493 31.6121 52.5651 29.8676 52.5651H3.15116C1.41574 52.5651 0 51.1585 0 49.4139V3.14203C0 1.40661 1.40661 0 3.14203 0H3.15116Z" fill="#34B67A"/>
<path d="M37.8326 60H15.336C14.2948 60 13.4453 59.1505 13.4453 58.1093V52.6016C13.4453 52.2545 13.7285 51.9714 14.0755 51.9714C14.4226 51.9714 14.7058 52.2545 14.7058 52.6016V58.1093C14.7058 58.4564 14.9889 58.7395 15.336 58.7395H37.8326C38.1797 58.7395 38.4628 58.4564 38.4628 58.1093V27.7394C38.4628 27.3923 38.746 27.1091 39.093 27.1091C39.4401 27.1091 39.7233 27.3923 39.7233 27.7394V58.1093C39.7233 59.1505 38.8738 60 37.8326 60Z" fill="#F5B400"/>
<path d="M39.5858 16.4866C39.5858 16.7058 39.4123 16.8793 39.193 16.8793C38.9738 16.8793 38.8003 16.7058 38.8003 16.4866V7.83685C38.8003 7.61763 38.9738 7.44409 39.193 7.44409C39.4123 7.44409 39.5858 7.61763 39.5858 7.83685V16.4866Z" fill="#5C6A78"/>
<path d="M39.1203 12.7965H39.2756C39.9698 12.7965 40.5361 13.3628 40.5361 14.057V27.2736C40.5361 27.9678 39.9698 28.5341 39.2756 28.5341H39.1203C38.4262 28.5341 37.8599 27.9678 37.8599 27.2736V14.057C37.8599 13.3628 38.4262 12.7965 39.1203 12.7965Z" fill="#4DBFD9"/>
<path d="M42.1068 16.5688C42.1068 17.0072 41.7506 17.3543 41.3213 17.3543H37.0741C36.6357 17.3543 36.2886 17.0072 36.2886 16.5688C36.2886 16.1303 36.6448 15.7833 37.0741 15.7833H41.3213C41.7597 15.7833 42.1068 16.1395 42.1068 16.5688Z" fill="#4DBFD9"/>
<path d="M47.2948 14.605C47.2948 14.8242 47.1212 14.9977 46.902 14.9977C46.6828 14.9977 46.5093 14.8242 46.5093 14.605V5.95525C46.5093 5.73604 46.6828 5.5625 46.902 5.5625C47.1212 5.5625 47.2948 5.73604 47.2948 5.95525V14.605Z" fill="#5C6A78"/>
<path d="M46.82 10.9058H46.9753C47.6695 10.9058 48.2358 11.4721 48.2358 12.1662V25.3828C48.2358 26.077 47.6695 26.6433 46.9753 26.6433H46.82C46.1259 26.6433 45.5596 26.077 45.5596 25.3828V12.1662C45.5596 11.4721 46.1259 10.9058 46.82 10.9058Z" fill="#D73D32"/>
<path d="M49.8158 14.678C49.8158 15.1164 49.4596 15.4635 49.0303 15.4635H44.7831C44.3446 15.4635 43.9976 15.1073 43.9976 14.678C43.9976 14.2396 44.3446 13.8925 44.7831 13.8925H49.0303C49.4687 13.8925 49.8158 14.2487 49.8158 14.678Z" fill="#D73D32"/>
<path d="M12.3396 51.1859H15.3263C16.0205 51.1859 16.5868 51.7522 16.5868 52.4463V53.2318C16.5868 53.926 16.0205 54.4923 15.3263 54.4923H12.3396C11.6454 54.4923 11.0791 53.926 11.0791 53.2318V52.4463C11.0791 51.7522 11.6454 51.1859 12.3396 51.1859Z" fill="#109D59"/>
<path d="M18.633 51.1859H21.6198C22.314 51.1859 22.8802 51.7522 22.8802 52.4463V53.2318C22.8802 53.926 22.314 54.4923 21.6198 54.4923H18.633C17.9389 54.4923 17.3726 53.926 17.3726 53.2318V52.4463C17.3726 51.7522 17.9389 51.1859 18.633 51.1859Z" fill="#109D59"/>
<path d="M3.90942 3.25165H29.1735C29.6668 3.25165 30.0595 3.65354 30.0595 4.13763V17.1624C30.0595 17.6557 29.6576 18.0484 29.1735 18.0484H3.90942C3.41619 18.0484 3.02344 17.6465 3.02344 17.1624V4.13763C3.02344 3.6444 3.42533 3.25165 3.90942 3.25165Z" fill="#E0E0E0"/>
<path d="M26.7803 34.1422C26.7803 39.8508 22.1495 44.4725 16.45 44.4725C10.7505 44.4725 6.11963 39.8417 6.11963 34.1422C6.11963 28.4427 10.7505 23.8118 16.45 23.8118C22.1495 23.8118 26.7803 28.4335 26.7803 34.1422Z" fill="#198762"/>
<path d="M13.1158 41.8602C12.7688 42.2073 12.2116 42.2073 11.8645 41.8602L8.83209 38.8278C8.48501 38.4807 8.48501 37.9236 8.83209 37.5674L20.222 26.1775C20.569 25.8304 21.1353 25.8304 21.4824 26.1775L24.5148 29.2099C24.8619 29.557 24.8619 30.1233 24.5148 30.4612L13.125 41.8511L13.1158 41.8602Z" fill="#11A35D"/>
<path d="M16.5413 5.72693C11.81 5.72693 7.28872 7.75463 4.12842 11.2894L8.76839 15.427C10.7413 13.2167 13.5819 11.9471 16.5413 11.9471C17.82 11.9471 19.0713 12.1937 20.2405 12.6412L23.62 7.31621C21.4279 6.28409 19.0257 5.72693 16.5413 5.72693Z" fill="#4DBFD9"/>
<path d="M23.611 7.31616L20.2314 12.6412C21.839 13.2531 23.2913 14.2487 24.4421 15.5823L29.1552 11.5268C27.6024 9.71835 25.7117 8.30261 23.611 7.31616Z" fill="#D73D32"/>
<path d="M17.6193 16.1942C17.6193 16.7331 17.1809 17.1715 16.6511 17.1715C16.1214 17.1715 15.6738 16.7331 15.6738 16.1942C15.6738 15.6553 16.6511 8.95111 16.6511 8.95111C16.6511 8.95111 17.6193 15.6553 17.6193 16.1942Z" fill="#666666"/>
<path d="M7.77261 22.8619C7.77261 24.0767 6.78616 25.0631 5.57137 25.0631C4.35657 25.0631 3.37012 24.0767 3.37012 22.8619C3.37012 21.6471 4.35657 20.6606 5.57137 20.6606C6.78616 20.6606 7.77261 21.6471 7.77261 22.8619Z" fill="#4D5A68"/>
<path d="M29.3288 22.8619C29.3288 24.0767 28.3423 25.0631 27.1275 25.0631C25.9127 25.0631 24.9263 24.0767 24.9263 22.8619C24.9263 21.6471 25.9127 20.6606 27.1275 20.6606C28.3423 20.6606 29.3288 21.6471 29.3288 22.8619Z" fill="#D73D32"/>
</svg>
