<svg width="50" height="60" viewBox="0 0 50 60" fill="none" xmlns="http://www.w3.org/2000/svg">
<path d="M7.03067 31.5211H41.4007C42.0315 31.5211 42.5402 32.0299 42.5402 32.6607V58.8604C42.5402 59.4913 42.0315 60 41.4007 60H7.03067C6.39984 60 5.89111 59.4913 5.89111 58.8604V32.6607C5.89111 32.0299 6.39984 31.5211 7.03067 31.5211Z" fill="#3C4A58"/>
<path d="M49.1843 24.5922C49.1843 38.1753 38.1754 49.1843 24.5922 49.1843C11.009 49.1843 0 38.1753 0 24.5922C0 11.009 11.009 0 24.5922 0C38.1754 0 49.1843 11.009 49.1843 24.5922Z" fill="#4D5A68"/>
<path d="M24.5923 47.9633C37.4942 47.9633 47.9533 37.5042 47.9533 24.6023C47.9533 11.7004 37.4942 1.24127 24.5923 1.24127C11.6903 1.24127 1.2312 11.7004 1.2312 24.6023C1.2312 37.5042 11.6903 47.9633 24.5923 47.9633Z" fill="#5C6A78"/>
<path d="M42.3466 12.6369H6.39952C5.68025 12.6369 5.09717 13.22 5.09717 13.9393V34.197C5.09717 34.9163 5.68025 35.4994 6.39952 35.4994H42.3466C43.0659 35.4994 43.649 34.9163 43.649 34.197V13.9393C43.649 13.22 43.0659 12.6369 42.3466 12.6369Z" fill="#ACBAC8"/>
<path d="M12.6777 32.2435H13.1967C13.2475 32.2435 13.2882 32.2842 13.2882 32.3351V34.0038C13.2882 34.0546 13.2475 34.0953 13.1967 34.0953H12.6777C12.6269 34.0953 12.5862 34.0546 12.5862 34.0038V32.3351C12.5862 32.2842 12.6269 32.2435 12.6777 32.2435Z" fill="#3C4A58"/>
<path d="M13.9902 32.2435H14.5092C14.5092 32.2435 14.6007 32.2842 14.6007 32.3351V34.0038C14.6007 34.0546 14.56 34.0953 14.5092 34.0953H13.9902C13.9394 34.0953 13.8987 34.0546 13.8987 34.0038V32.3351C13.8987 32.2842 13.9394 32.2435 13.9902 32.2435Z" fill="#3C4A58"/>
<path d="M15.2925 32.2435H15.8114C15.8623 32.2435 15.903 32.2842 15.903 32.3351V34.0038C15.903 34.0546 15.8623 34.0953 15.8114 34.0953H15.2925C15.2416 34.0953 15.2009 34.0546 15.2009 34.0038V32.3351C15.2009 32.2842 15.2416 32.2435 15.2925 32.2435Z" fill="#3C4A58"/>
<path d="M16.605 32.2435H17.1239C17.1239 32.2435 17.2155 32.2842 17.2155 32.3351V34.0038C17.2155 34.0546 17.1748 34.0953 17.1239 34.0953H16.605C16.605 34.0953 16.5134 34.0546 16.5134 34.0038V32.3351C16.5134 32.2842 16.5541 32.2435 16.605 32.2435Z" fill="#3C4A58"/>
<path d="M18.4262 32.2435H17.9072C17.8567 32.2435 17.8157 32.2845 17.8157 32.3351V34.0038C17.8157 34.0543 17.8567 34.0953 17.9072 34.0953H18.4262C18.4767 34.0953 18.5177 34.0543 18.5177 34.0038V32.3351C18.5177 32.2845 18.4767 32.2435 18.4262 32.2435Z" fill="#3C4A58"/>
<path d="M19.7386 32.2435H19.2197C19.1692 32.2435 19.1282 32.2845 19.1282 32.3351V34.0038C19.1282 34.0543 19.1692 34.0953 19.2197 34.0953H19.7386C19.7892 34.0953 19.8302 34.0543 19.8302 34.0038V32.3351C19.8302 32.2845 19.7892 32.2435 19.7386 32.2435Z" fill="#3C4A58"/>
<path d="M21.0414 32.2435H20.5225C20.4719 32.2435 20.4309 32.2845 20.4309 32.3351V34.0038C20.4309 34.0543 20.4719 34.0953 20.5225 34.0953H21.0414C21.0919 34.0953 21.133 34.0543 21.133 34.0038V32.3351C21.133 32.2845 21.0919 32.2435 21.0414 32.2435Z" fill="#3C4A58"/>
<path d="M21.835 32.2435H22.3539C22.3539 32.2435 22.4455 32.2842 22.4455 32.3351V34.0038C22.4455 34.0546 22.4048 34.0953 22.3539 34.0953H21.835C21.7841 34.0953 21.7434 34.0546 21.7434 34.0038V32.3351C21.7434 32.2842 21.7841 32.2435 21.835 32.2435Z" fill="#3C4A58"/>
<path d="M23.6559 32.2435H23.137C23.0864 32.2435 23.0454 32.2845 23.0454 32.3351V34.0038C23.0454 34.0543 23.0864 34.0953 23.137 34.0953H23.6559C23.7065 34.0953 23.7475 34.0543 23.7475 34.0038V32.3351C23.7475 32.2845 23.7065 32.2435 23.6559 32.2435Z" fill="#3C4A58"/>
<path d="M24.4497 32.2435H24.9686C24.9686 32.2435 25.0602 32.2842 25.0602 32.3351V34.0038C25.0602 34.0546 25.0195 34.0953 24.9686 34.0953H24.4497C24.3988 34.0953 24.3582 34.0546 24.3582 34.0038V32.3351C24.3582 32.2842 24.3988 32.2435 24.4497 32.2435Z" fill="#3C4A58"/>
<path d="M25.7522 32.2435H26.2711C26.322 32.2435 26.3627 32.2842 26.3627 32.3351V34.0037C26.3627 34.0546 26.322 34.0953 26.2711 34.0953H25.7522C25.7522 34.0953 25.6606 34.0546 25.6606 34.0037V32.3249C25.6606 32.3249 25.7013 32.2333 25.7522 32.2333V32.2435Z" fill="#3C4A58"/>
<path d="M27.0645 32.2435H27.5834C27.6343 32.2435 27.675 32.2842 27.675 32.3351V34.0038C27.675 34.0546 27.6343 34.0953 27.5834 34.0953H27.0645C27.0136 34.0953 26.9729 34.0546 26.9729 34.0038V32.3351C26.9729 32.2842 27.0136 32.2435 27.0645 32.2435Z" fill="#3C4A58"/>
<path d="M28.367 32.2435H28.8859C28.8859 32.2435 28.9774 32.2842 28.9774 32.3351V34.0038C28.9774 34.0546 28.9368 34.0953 28.8859 34.0953H28.367C28.367 34.0953 28.2754 34.0546 28.2754 34.0038V32.3351C28.2754 32.2842 28.3161 32.2435 28.367 32.2435Z" fill="#3C4A58"/>
<path d="M29.6795 32.2435H30.1983C30.1983 32.2435 30.2899 32.2842 30.2899 32.3351V34.0038C30.2899 34.0546 30.2492 34.0953 30.1983 34.0953H29.6795C29.6286 34.0953 29.5879 34.0546 29.5879 34.0038V32.3351C29.5879 32.2842 29.6286 32.2435 29.6795 32.2435Z" fill="#3C4A58"/>
<path d="M30.9817 32.2435H31.5006C31.5006 32.2435 31.5922 32.2842 31.5922 32.3351V34.0038C31.5922 34.0546 31.5515 34.0953 31.5006 34.0953H30.9817C30.9817 34.0953 30.8901 34.0546 30.8901 34.0038V32.3351C30.8901 32.2842 30.9308 32.2435 30.9817 32.2435Z" fill="#3C4A58"/>
<path d="M32.2942 32.2435H32.8131C32.864 32.2435 32.9047 32.2842 32.9047 32.3351V34.0038C32.9047 34.0546 32.864 34.0953 32.8131 34.0953H32.2942C32.2433 34.0953 32.2026 34.0546 32.2026 34.0038V32.3351C32.2026 32.2842 32.2433 32.2435 32.2942 32.2435Z" fill="#3C4A58"/>
<path d="M33.597 32.2435H34.1159C34.1159 32.2435 34.2074 32.2842 34.2074 32.3351V34.0038C34.2074 34.0546 34.1667 34.0953 34.1159 34.0953H33.597C33.597 34.0953 33.5054 34.0546 33.5054 34.0038V32.3351C33.5054 32.2842 33.5461 32.2435 33.597 32.2435Z" fill="#3C4A58"/>
<path d="M35.4179 32.2435H34.899C34.8484 32.2435 34.8074 32.2845 34.8074 32.3351V34.0038C34.8074 34.0543 34.8484 34.0953 34.899 34.0953H35.4179C35.4684 34.0953 35.5094 34.0543 35.5094 34.0038V32.3351C35.5094 32.2845 35.4684 32.2435 35.4179 32.2435Z" fill="#3C4A58"/>
<path d="M8.80114 16.5643H39.0708C39.7932 16.5643 40.3731 17.1545 40.3731 17.8667V25.2738C40.3731 25.9962 39.783 26.5762 39.0708 26.5762H8.80114C8.07873 26.5762 7.49878 25.9962 7.49878 25.2738V17.8667C7.49878 17.1443 8.08891 16.5643 8.80114 16.5643Z" fill="#6C7A88"/>
<path d="M12.7795 21.7432C12.7795 22.72 12.6269 23.4322 12.3115 23.9104C11.9961 24.3785 11.5179 24.6227 10.8768 24.6227C10.2358 24.6227 9.778 24.3785 9.46259 23.8901C9.137 23.4017 8.98438 22.6895 8.98438 21.7432C8.98438 20.7563 9.13699 20.0237 9.4524 19.5557C9.76782 19.0877 10.246 18.8536 10.8768 18.8536C11.5077 18.8536 11.9757 19.0978 12.3013 19.5862C12.6269 20.0746 12.7795 20.797 12.7795 21.7331V21.7432ZM9.8899 21.7432C9.8899 22.5063 9.97131 23.0558 10.1239 23.3814C10.2766 23.707 10.5309 23.8698 10.8768 23.8698C11.2228 23.8698 11.4771 23.707 11.6298 23.3712C11.7926 23.0354 11.874 22.4962 11.874 21.7432C11.874 20.9903 11.7926 20.4511 11.6298 20.1153C11.467 19.7795 11.2228 19.6167 10.8768 19.6167C10.5309 19.6167 10.2766 19.7795 10.1239 20.1051C9.97131 20.4409 9.8899 20.9801 9.8899 21.7432Z" fill="#DEEEFF"/>
<path d="M17.4496 23.3203H16.6967V24.5413H15.8217V23.3203H13.2678V22.6284L15.8217 18.9249H16.6967V22.5674H17.4496V23.3101V23.3203ZM15.8217 22.5776V21.1735C15.8217 20.6749 15.8318 20.2679 15.8623 19.9423H15.8318C15.7606 20.1051 15.6487 20.3188 15.4961 20.5528L14.1123 22.5776H15.8318H15.8217Z" fill="#DEEEFF"/>
<path d="M19.8303 21.0514C20.4001 21.0514 20.8376 21.204 21.1733 21.499C21.4989 21.7941 21.6719 22.2113 21.6719 22.72C21.6719 23.3203 21.4888 23.7782 21.1123 24.1241C20.7358 24.4599 20.2067 24.6328 19.5149 24.6328C18.8942 24.6328 18.3957 24.5311 18.0396 24.3276V23.5136C18.243 23.6357 18.4872 23.7273 18.7518 23.7883C19.0163 23.8494 19.2707 23.8799 19.4945 23.8799C19.9015 23.8799 20.2068 23.7883 20.4204 23.6052C20.6341 23.4221 20.7358 23.1575 20.7358 22.8116C20.7358 22.1401 20.3085 21.8043 19.4538 21.8043C19.3317 21.8043 19.1893 21.8145 19.0061 21.845C18.8332 21.8653 18.6704 21.8959 18.5381 21.9264L18.1413 21.6924L18.355 18.9554H21.2649V19.7592H19.1486L19.0265 21.1429C19.1181 21.1328 19.23 21.1124 19.3521 21.0921C19.4844 21.0717 19.637 21.0615 19.8201 21.0615L19.8303 21.0514Z" fill="#DEEEFF"/>
<path d="M38.2668 18.7417H35.9266L35.8859 19.2708L36.2827 19.5048C36.415 19.4743 36.5676 19.4438 36.7508 19.4234C36.9237 19.4031 37.0763 19.3827 37.1984 19.3827C38.0531 19.3827 38.4805 19.7185 38.4805 20.39C38.4805 20.7359 38.3787 21.0005 38.165 21.1836C37.9514 21.3668 37.6461 21.4583 37.2391 21.4583C37.0051 21.4583 36.7609 21.4278 36.4964 21.3668C36.2318 21.3057 35.9877 21.2141 35.7842 21.092V21.906C36.1403 22.1095 36.6287 22.2113 37.2595 22.2113C37.9514 22.2113 38.4805 22.0485 38.8569 21.7127C39.2334 21.3769 39.4165 20.9089 39.4165 20.3086C39.4165 19.7897 39.2537 19.3827 38.9281 19.0876C38.7552 18.9248 38.5313 18.8129 38.2871 18.7417H38.2668Z" fill="#DEEEFF"/>
<path d="M36.8015 24.6125L36.8931 23.656H39.0094V22.8522H36.0995L35.957 24.6125H36.8015Z" fill="#DEEEFF"/>
<path d="M22.425 22.1604C22.425 19.9728 23.3204 18.874 25.101 18.874C25.3859 18.874 25.6199 18.8943 25.8132 18.935V19.6879C25.6199 19.6269 25.396 19.6065 25.1417 19.6065C24.5414 19.6065 24.0937 19.7693 23.7885 20.0847C23.4832 20.4103 23.3204 20.9191 23.3001 21.6313H23.3509C23.473 21.4278 23.6358 21.265 23.8597 21.1531C24.0733 21.0412 24.3277 20.9801 24.6228 20.9801C25.1315 20.9801 25.5283 21.1327 25.8132 21.4482C26.0981 21.7636 26.2405 22.1807 26.2405 22.72C26.2405 23.3101 26.0777 23.768 25.7522 24.1139C25.4266 24.4497 24.9789 24.6227 24.4091 24.6227C24.0123 24.6227 23.6562 24.5311 23.3611 24.3378C23.066 24.1444 22.832 23.8697 22.6794 23.4933C22.5166 23.127 22.4352 22.6793 22.4352 22.1604H22.425ZM24.3786 23.8799C24.6838 23.8799 24.928 23.7781 25.0908 23.5848C25.2536 23.3813 25.3452 23.0964 25.3452 22.7302C25.3452 22.4046 25.2638 22.1502 25.1111 21.9671C24.9585 21.7839 24.7245 21.6923 24.3989 21.6923C24.2056 21.6923 24.0225 21.733 23.8597 21.8144C23.6969 21.8958 23.5646 22.0078 23.473 22.1604C23.3815 22.3028 23.3306 22.4554 23.3306 22.5979C23.3306 22.954 23.4323 23.2592 23.6257 23.5034C23.819 23.7476 24.0733 23.8697 24.3684 23.8697L24.3786 23.8799Z" fill="#DEEEFF"/>
<path d="M30.6666 21.3362C30.6666 22.4351 30.4427 23.2593 30.0052 23.8087C29.5575 24.348 28.8962 24.6227 28.0008 24.6227C27.6651 24.6227 27.4209 24.6023 27.2682 24.5616V23.8087C27.4921 23.8697 27.7261 23.9003 27.9499 23.9003C28.5604 23.9003 29.0081 23.7375 29.3133 23.4119C29.6084 23.0863 29.7712 22.5674 29.8017 21.8755H29.7508C29.5982 22.1095 29.4151 22.2723 29.2014 22.3741C28.9878 22.4758 28.7334 22.5267 28.4485 22.5267C27.9499 22.5267 27.5633 22.3741 27.2784 22.0688C26.9935 21.7636 26.8511 21.3363 26.8511 20.797C26.8511 20.217 27.0138 19.749 27.3394 19.4031C27.665 19.0571 28.1127 18.8842 28.6825 18.8842C29.0793 18.8842 29.4252 18.9757 29.7203 19.1792C30.0154 19.3725 30.2494 19.6574 30.402 20.0237C30.5546 20.39 30.6462 20.8377 30.6462 21.3464L30.6666 21.3362ZM28.713 19.6269C28.4078 19.6269 28.1636 19.7287 28.0008 19.9321C27.838 20.1356 27.7464 20.4205 27.7464 20.7868C27.7464 21.1022 27.8278 21.3566 27.9804 21.5397C28.1331 21.7229 28.3671 21.8145 28.6825 21.8145C28.9979 21.8145 29.2421 21.7229 29.4456 21.5397C29.6491 21.3566 29.7508 21.1429 29.7508 20.9089C29.7508 20.6851 29.7102 20.4714 29.6186 20.2679C29.527 20.0746 29.4049 19.9118 29.2523 19.7999C29.0895 19.688 28.9165 19.6269 28.7028 19.6269H28.713Z" fill="#DEEEFF"/>
<path d="M33.2508 18.874C33.7799 18.874 34.2072 18.9961 34.5125 19.2403C34.8177 19.4844 34.9805 19.81 34.9805 20.217C34.9805 20.7868 34.6346 21.2447 33.9427 21.5906C34.3802 21.8144 34.6956 22.0383 34.8788 22.2825C35.0619 22.5267 35.1535 22.7912 35.1535 23.0965C35.1535 23.5543 34.9805 23.9308 34.6448 24.2055C34.309 24.4802 33.8409 24.6227 33.261 24.6227C32.681 24.6227 32.1825 24.4904 31.8467 24.236C31.511 23.9816 31.3481 23.6052 31.3481 23.127C31.3481 22.8116 31.4397 22.5368 31.6127 22.2825C31.7857 22.0281 32.0706 21.8144 32.4775 21.6211C32.1316 21.4176 31.8874 21.204 31.745 20.9801C31.6025 20.7563 31.5313 20.5019 31.5313 20.217C31.5313 19.81 31.6941 19.4844 32.0095 19.2504C32.3249 19.0062 32.7421 18.8943 33.261 18.8943L33.2508 18.874ZM32.213 23.0965C32.213 23.361 32.3046 23.5645 32.4877 23.7171C32.6708 23.8697 32.9252 23.9409 33.2508 23.9409C33.5764 23.9409 33.8308 23.8697 34.0139 23.7171C34.197 23.5645 34.2886 23.361 34.2886 23.0965C34.2886 22.893 34.2072 22.6996 34.0343 22.5267C33.8715 22.3537 33.6069 22.2011 33.2712 22.0485L33.1592 21.9976C32.8235 22.1502 32.5793 22.313 32.4267 22.486C32.274 22.6589 32.2028 22.8624 32.2028 23.0965H32.213ZM33.2406 19.576C32.9863 19.576 32.7828 19.6371 32.62 19.7693C32.4674 19.8914 32.386 20.0644 32.386 20.2882C32.386 20.4205 32.4165 20.5426 32.4674 20.6444C32.5284 20.7461 32.6098 20.8478 32.7115 20.9292C32.8133 21.0106 32.9964 21.1226 33.2508 21.2345C33.556 21.1022 33.7799 20.9598 33.902 20.8072C34.0241 20.6545 34.0953 20.4816 34.0953 20.2882C34.0953 20.0746 34.0139 19.9016 33.8613 19.7693C33.6985 19.6472 33.495 19.576 33.2305 19.576H33.2406Z" fill="#DEEEFF"/>
<path d="M37.1171 29.5167C37.1171 30.117 36.6389 30.6054 36.0284 30.6054H12.3926C11.7923 30.6054 11.304 30.117 11.304 29.5167C11.304 28.9164 11.7923 28.428 12.3926 28.428H36.0284C36.6287 28.428 37.1171 28.9164 37.1171 29.5167Z" fill="#6C7A88"/>
<path d="M31.562 28.428H16.7578V30.6054H31.562V28.428Z" fill="#E57368"/>
<path d="M26.7695 5.80972C26.7695 7.12225 25.7113 8.18042 24.3988 8.18042C23.0863 8.18042 22.0281 7.12225 22.0281 5.80972C22.0281 4.49719 23.0863 3.43903 24.3988 3.43903C25.7113 3.43903 26.7695 4.49719 26.7695 5.80972Z" fill="#4D5A68"/>
<path d="M26.7695 44.1072C26.7695 45.4197 25.7113 46.4779 24.3988 46.4779C23.0863 46.4779 22.0281 45.4197 22.0281 44.1072C22.0281 42.7947 23.0863 41.7365 24.3988 41.7365C25.7113 41.7365 26.7695 42.7947 26.7695 44.1072Z" fill="#4D5A68"/>
</svg>
