<svg width="64" height="64" viewBox="0 0 64 64" fill="none" xmlns="http://www.w3.org/2000/svg">
<path d="M51.0022 11.6088L28.4475 34.1635C26.7433 35.8677 24.0362 35.966 22.214 34.4584L46.8924 9.78002C47.2791 9.39329 47.2791 8.76403 46.8924 8.37731C46.5057 7.99058 45.8699 7.98403 45.4832 8.37076L20.831 33.023C19.5266 31.2073 19.7035 28.6707 21.3291 27.0451L43.8838 4.49038C45.6995 2.67473 48.6425 2.68127 50.4516 4.49037L51.0022 5.04096C52.8179 6.85661 52.8113 9.79968 51.0022 11.6088Z" fill="#C5D3E1"/>
<path d="M58.9275 19.5338L36.3728 42.0885C34.6686 43.7928 31.9615 43.8911 30.1393 42.3835L54.8177 17.7051C55.2044 17.3183 55.2044 16.6891 54.8177 16.3024C54.431 15.9156 53.7952 15.9091 53.4085 16.2958L28.7562 40.948C27.4519 39.1324 27.6288 36.5957 29.2544 34.9701L51.8091 12.4154C53.6248 10.5998 56.5613 10.5998 58.3769 12.4154L58.9275 12.966C60.7366 14.7751 60.7366 17.7247 58.9275 19.5338Z" fill="#C5D3E1"/>
<path d="M35.4082 45.4638L32.6356 48.2365C32.3996 48.4724 32.1112 48.6429 31.7638 48.7805C29.8433 49.5343 26.6118 48.9116 26.4086 49.1148L22.8625 52.6609C21.2828 54.2406 18.7068 54.2471 17.1141 52.6543L10.7625 46.3028C9.17631 44.7166 9.17633 42.1341 10.756 40.5544L14.3021 37.0083C14.4987 36.8116 13.876 33.5802 14.6298 31.6596C14.7675 31.3122 14.9445 31.0173 15.1804 30.7813L17.9531 28.0087C18.6151 27.3467 19.441 26.9665 20.2996 26.8551C21.5123 26.6912 22.7773 27.0779 23.7015 28.0021L35.4017 39.7023C36.3324 40.633 36.7192 41.8981 36.5553 43.1107C36.4504 43.9759 36.0637 44.7953 35.4017 45.4573L35.4082 45.4638Z" fill="#DFE8F0"/>
<path d="M5.32227 49.2001C4.74546 49.7769 6.27272 52.235 8.72418 54.6864C11.1756 57.1379 13.6336 58.6651 14.2105 58.0883C14.7873 57.5115 13.2535 55.06 10.802 52.6086C8.35056 50.1571 5.89253 48.6299 5.32227 49.2001Z" fill="#6C7A88"/>
<path d="M22.9289 53.9586C22.2538 54.6337 21.1722 54.6271 20.5037 53.9586L9.45899 42.9139C8.78385 42.2388 8.77729 41.1572 9.45242 40.4821C9.57041 40.3641 9.70151 40.2723 9.8326 40.1937C10.4881 39.8266 11.3271 39.9315 11.8777 40.4821L22.9223 51.5268C23.2501 51.8545 23.4205 52.3002 23.427 52.7394C23.4205 53.0212 23.3549 53.3096 23.2107 53.5718C23.1321 53.716 23.0403 53.834 22.9223 53.952L22.9289 53.9586Z" fill="#C5D3E1"/>
<path d="M20.4958 56.3904C19.8207 57.0655 18.7326 57.0655 18.064 56.3969L7.01933 45.3523C6.34419 44.6771 6.33763 43.5956 7.01932 42.9139C7.1373 42.7959 7.2684 42.7042 7.39949 42.6255C8.05496 42.2584 8.89396 42.3633 9.44456 42.9139L20.4892 53.9586C20.817 54.2863 20.9874 54.732 20.9939 55.1712C20.9874 55.4531 20.9218 55.7415 20.7776 56.0036C20.7055 56.1413 20.6072 56.2658 20.4892 56.3838L20.4958 56.3904Z" fill="#C5D3E1"/>
<path d="M18.0663 58.8223C17.3912 59.4975 16.3031 59.4975 15.6345 58.8289L4.58988 47.7842C3.91475 47.1091 3.90818 46.0275 4.58987 45.3459C4.70786 45.2279 4.83896 45.1361 4.97005 45.0575C5.62552 44.6904 6.46452 44.7953 7.01511 45.3459L18.0598 56.3905C18.3875 56.7183 18.5579 57.164 18.5645 57.6031C18.5579 57.885 18.4924 58.1734 18.3482 58.4356C18.2695 58.5798 18.1778 58.6978 18.0598 58.8158L18.0663 58.8223Z" fill="#C5D3E1"/>
<path d="M24.0698 51.4288L11.9895 39.3484L11.2816 40.0564L23.3619 52.1367L24.0698 51.4288Z" fill="#C5D3E1"/>
<path d="M35.4089 45.464L32.6363 48.2366C32.4003 48.4726 32.1119 48.643 31.7645 48.7806C31.7252 48.7413 31.6793 48.6954 31.6335 48.6495L14.6371 31.6532C14.7748 31.3058 14.9517 31.0108 15.1877 30.7749L17.9603 28.0022C18.6224 27.3402 19.4483 26.96 20.3069 26.8486L36.5626 43.1043C36.4577 43.9695 36.071 44.7888 35.409 45.4509L35.4089 45.464Z" fill="#EBF0F5"/>
<path d="M24.9476 39.0928C24.9673 38.4439 25.4851 37.9392 25.4851 37.9392C25.4851 37.9392 25.9767 38.4832 25.9505 39.1256C25.9308 39.7745 25.6883 40.2923 25.413 40.2792C25.1377 40.2661 24.928 39.7417 24.9476 39.0928Z" fill="#7BD0A9"/>
<path d="M25.7591 39.0406C26.2311 38.5948 26.9586 38.6014 26.9586 38.6014C26.9586 38.6014 26.9193 39.3224 26.4474 39.7681C25.9754 40.2138 25.4379 40.4105 25.2479 40.2073C25.0512 40.0107 25.2937 39.4797 25.7657 39.034L25.7591 39.0406Z" fill="#7BD0A9"/>
<path d="M24.4089 39.709C23.9632 39.2371 23.9697 38.5095 23.9697 38.5095C23.9697 38.5095 24.6908 38.5488 25.143 39.0273C25.5888 39.4993 25.7854 40.0368 25.5822 40.2268C25.3856 40.4235 24.8612 40.1875 24.4155 39.7156L24.4089 39.709Z" fill="#7BD0A9"/>
<path d="M27.2224 42.5736L26.1605 41.5118L28.0352 39.6371L29.097 40.699L28.8348 40.9612L28.081 40.2074L27.5698 40.7187L28.2777 41.4266L28.022 41.6822L27.3141 40.9743L26.7242 41.5642L27.478 42.318L27.2158 42.5802L27.2224 42.5736Z" fill="#7BD0A9"/>
<path d="M30.0613 42.1346C29.8843 41.9576 29.6877 41.8789 29.4583 41.9117C29.2354 41.9379 29.0126 42.0559 28.7897 42.2788C28.5668 42.5017 28.4292 42.7311 28.4095 42.9474C28.3899 43.1637 28.4685 43.3603 28.652 43.5438C28.7307 43.6225 28.8159 43.6946 28.9077 43.747C28.9929 43.806 29.0978 43.8585 29.1961 43.9175L28.9339 44.1797C28.7307 44.0944 28.5341 43.9502 28.3505 43.7667C28.0752 43.4914 27.9507 43.1964 27.9638 42.8818C27.9835 42.5737 28.1473 42.2526 28.4554 41.9445C28.652 41.7479 28.8552 41.6102 29.0716 41.5381C29.2879 41.466 29.5042 41.4595 29.7139 41.5119C29.9302 41.5709 30.1268 41.6889 30.3104 41.8724C30.5005 42.0625 30.6381 42.2788 30.7233 42.5213L30.3563 42.6655C30.3235 42.5672 30.2842 42.4754 30.2317 42.3837C30.1793 42.2919 30.1203 42.2067 30.0416 42.128L30.0613 42.1346Z" fill="#7BD0A9"/>
<path d="M31.9036 45.3659C31.5956 45.674 31.2809 45.8313 30.9598 45.8509C30.6386 45.8706 30.3371 45.7395 30.0552 45.4577C29.7734 45.1758 29.6423 44.8743 29.6488 44.5531C29.6685 44.2319 29.8258 43.9173 30.1339 43.6092C30.4419 43.3012 30.7631 43.1373 31.0778 43.1242C31.3924 43.1111 31.6939 43.2422 31.9823 43.5306C32.2707 43.819 32.3952 44.1139 32.3756 44.4351C32.3559 44.7563 32.1986 45.0709 31.8905 45.379L31.9036 45.3659ZM30.4682 43.9304C30.2387 44.1598 30.1077 44.3827 30.0814 44.5925C30.0552 44.8022 30.1339 44.9988 30.3174 45.1824C30.5009 45.3659 30.6976 45.4445 30.9073 45.4183C31.1171 45.3921 31.34 45.261 31.5759 45.0251C31.8119 44.7891 31.9364 44.5728 31.9626 44.363C31.9889 44.1533 31.9102 43.9566 31.7267 43.7731C31.5431 43.5896 31.3465 43.5109 31.1368 43.5371C30.927 43.5634 30.7041 43.6944 30.4747 43.9239L30.4682 43.9304Z" fill="#7BD0A9"/>
</svg>
