<svg width="60" height="36" viewBox="0 0 60 36" fill="none" xmlns="http://www.w3.org/2000/svg">
<path d="M14.0575 23.3511H57.2898C58.2745 23.3511 59.081 24.1576 59.081 25.1422V33.4136C59.081 34.4076 58.2745 35.2048 57.2898 35.2048H14.0575C13.0635 35.2048 12.2664 34.3983 12.2664 33.4136V25.1422C12.2664 24.1576 13.0729 23.3511 14.0575 23.3511Z" fill="#34B67A"/>
<path d="M23.6042 35.2141V23.3604H57.2992C58.2932 23.3604 59.0903 24.1669 59.0903 25.1516V33.4229C59.0903 34.417 58.2838 35.2141 57.2992 35.2141H23.6042Z" fill="#4D5A68"/>
<path d="M11.0286 26.4271C11.0286 26.0894 11.3099 25.8081 11.6475 25.8081C11.9851 25.8081 12.2664 26.0801 12.2664 26.4271V32.1288C12.2664 32.4758 11.9851 32.7478 11.6475 32.7478C11.3099 32.7478 11.0286 32.4758 11.0286 32.1288V26.4271Z" fill="#F5B400"/>
<path d="M53.5198 28.7715V29.7843H49.4404V28.7715H53.5198Z" fill="#EBF0F5"/>
<path d="M16.9273 28.9122H18.5684V29.6437H16.9273V31.3317H16.1864V29.6437H14.5359V28.9122H16.1864V27.2335H16.9273V28.9122Z" fill="#EBF0F5"/>
<path d="M32.1007 32.1382L31.5286 30.5533H29.3529L28.7996 32.1382H27.8149L29.9437 26.4177H30.9566L33.0853 32.1382H32.0913H32.1007ZM31.2848 29.7562L30.7502 28.1995C30.7127 28.0963 30.6565 27.9275 30.5908 27.7118C30.5252 27.4868 30.4783 27.3273 30.4501 27.2242C30.3751 27.543 30.2813 27.89 30.1407 28.2745L29.6249 29.7562H31.2848Z" fill="#5C6A78"/>
<path d="M37.3712 32.1382L36.7991 30.5533H34.6234L34.0701 32.1382H33.0854L35.2142 26.4177H36.2271L38.3559 32.1382H37.3618H37.3712ZM36.5553 29.7562L36.0207 28.1995C35.9832 28.0963 35.927 27.9275 35.8613 27.7118C35.7957 27.4961 35.7488 27.3273 35.7207 27.2242C35.655 27.543 35.5519 27.89 35.4112 28.2745L34.8954 29.7562H36.5553Z" fill="#5C6A78"/>
<path d="M42.6507 32.1382L42.0787 30.5533H39.903L39.3497 32.1382H38.365L40.4938 26.4177H41.5066L43.6354 32.1382H42.6507ZM41.8348 29.7562L41.3003 28.1995C41.2628 28.0963 41.2065 27.9275 41.1409 27.7118C41.0752 27.4868 41.0283 27.3273 41.0002 27.2242C40.9345 27.543 40.8314 27.89 40.6907 28.2745L40.1749 29.7562H41.8348Z" fill="#5C6A78"/>
<path d="M2.72898 0.00938709H55.3861C56.8959 0.00938709 58.115 1.22852 58.115 2.73837V15.3142C58.115 16.824 56.8959 18.0432 55.3861 18.0432H2.72898C1.22851 18.0432 0 16.824 0 15.3142V2.72898C0 1.22851 1.21913 0 2.72898 0V0.00938709Z" fill="#DC4437"/>
<path d="M40.8783 0.00938709V18.0432H2.73824C1.23778 18.0432 0.00927734 16.824 0.00927734 15.3142V2.72898C0.00927734 1.22851 1.2284 0 2.73824 0H40.8783V0.00938709Z" fill="#4D5A68"/>
<path d="M60.0001 13.3542C60.0001 13.87 59.5781 14.292 59.0623 14.292C58.5465 14.292 58.1245 13.87 58.1245 13.3542V4.68895C58.1245 4.17317 58.5465 3.75116 59.0623 3.75116C59.5781 3.75116 60.0001 4.17317 60.0001 4.68895V13.3542Z" fill="#F5B400"/>
<path d="M3.42285 9.79053V8.25256H9.62166V9.79053H3.42285Z" fill="#EBF0F5"/>
<path d="M51.0347 9.58421H48.5308V8.46824H51.0347V5.90808H52.1694V8.46824H54.6733V9.58421H52.1694V12.135H51.0347V9.58421Z" fill="#EBF0F5"/>
<path d="M22.6196 12.9885L21.8318 10.794H18.8121L18.0431 12.9885H16.6833L19.6468 5.04535H21.0535L24.0075 12.9885H22.6383H22.6196ZM21.4848 9.67805L20.744 7.53049C20.6877 7.38983 20.6127 7.1554 20.5189 6.84592C20.4251 6.53645 20.3595 6.31137 20.322 6.16132C20.2282 6.60209 20.0875 7.08976 19.8906 7.61492L19.1779 9.67805H21.4848Z" fill="#5C6A78"/>
<path d="M29.9437 12.9885L29.1559 10.794H26.1362L25.3578 12.9885H23.998L26.9521 5.04535H28.3588L31.3222 12.9885H29.953H29.9437ZM28.8089 9.67805L28.0681 7.53049C28.0118 7.38983 27.9368 7.1554 27.843 6.84592C27.7492 6.53645 27.6836 6.31137 27.6461 6.16132C27.5523 6.60209 27.4116 7.08976 27.2147 7.61492L26.502 9.67805H28.8089Z" fill="#5C6A78"/>
</svg>
