<svg width="20" height="22" viewBox="0 0 20 22" fill="none" xmlns="http://www.w3.org/2000/svg">
<path fill-rule="evenodd" clip-rule="evenodd" d="M0.342773 8.4043C0.342773 7.99008 0.67856 7.6543 1.09277 7.6543H18.9167C19.3309 7.6543 19.6667 7.99008 19.6667 8.4043C19.6667 8.81851 19.3309 9.1543 18.9167 9.1543H1.09277C0.67856 9.1543 0.342773 8.81851 0.342773 8.4043Z" fill="#AFAFAF"/>
<path fill-rule="evenodd" clip-rule="evenodd" d="M13.6919 12.3096C13.6919 11.8954 14.0277 11.5596 14.4419 11.5596H14.4512C14.8654 11.5596 15.2012 11.8954 15.2012 12.3096C15.2012 12.7238 14.8654 13.0596 14.4512 13.0596H14.4419C14.0277 13.0596 13.6919 12.7238 13.6919 12.3096Z" fill="#AFAFAF"/>
<path fill-rule="evenodd" clip-rule="evenodd" d="M9.25439 12.3096C9.25439 11.8954 9.59018 11.5596 10.0044 11.5596H10.0137C10.4279 11.5596 10.7637 11.8954 10.7637 12.3096C10.7637 12.7238 10.4279 13.0596 10.0137 13.0596H10.0044C9.59018 13.0596 9.25439 12.7238 9.25439 12.3096Z" fill="#AFAFAF"/>
<path fill-rule="evenodd" clip-rule="evenodd" d="M4.80811 12.3096C4.80811 11.8954 5.14389 11.5596 5.55811 11.5596H5.56737C5.98158 11.5596 6.31737 11.8954 6.31737 12.3096C6.31737 12.7238 5.98158 13.0596 5.56737 13.0596H5.55811C5.14389 13.0596 4.80811 12.7238 4.80811 12.3096Z" fill="#AFAFAF"/>
<path fill-rule="evenodd" clip-rule="evenodd" d="M13.6919 16.1963C13.6919 15.7821 14.0277 15.4463 14.4419 15.4463H14.4512C14.8654 15.4463 15.2012 15.7821 15.2012 16.1963C15.2012 16.6105 14.8654 16.9463 14.4512 16.9463H14.4419C14.0277 16.9463 13.6919 16.6105 13.6919 16.1963Z" fill="#AFAFAF"/>
<path fill-rule="evenodd" clip-rule="evenodd" d="M9.25439 16.1963C9.25439 15.7821 9.59018 15.4463 10.0044 15.4463H10.0137C10.4279 15.4463 10.7637 15.7821 10.7637 16.1963C10.7637 16.6105 10.4279 16.9463 10.0137 16.9463H10.0044C9.59018 16.9463 9.25439 16.6105 9.25439 16.1963Z" fill="#AFAFAF"/>
<path fill-rule="evenodd" clip-rule="evenodd" d="M4.80811 16.1963C4.80811 15.7821 5.14389 15.4463 5.55811 15.4463H5.56737C5.98158 15.4463 6.31737 15.7821 6.31737 16.1963C6.31737 16.6105 5.98158 16.9463 5.56737 16.9463H5.55811C5.14389 16.9463 4.80811 16.6105 4.80811 16.1963Z" fill="#AFAFAF"/>
<path fill-rule="evenodd" clip-rule="evenodd" d="M14.0439 0.25C14.4582 0.25 14.7939 0.585786 14.7939 1V4.29078C14.7939 4.70499 14.4582 5.04078 14.0439 5.04078C13.6297 5.04078 13.2939 4.70499 13.2939 4.29078V1C13.2939 0.585786 13.6297 0.25 14.0439 0.25Z" fill="#AFAFAF"/>
<path fill-rule="evenodd" clip-rule="evenodd" d="M5.96533 0.25C6.37955 0.25 6.71533 0.585786 6.71533 1V4.29078C6.71533 4.70499 6.37955 5.04078 5.96533 5.04078C5.55112 5.04078 5.21533 4.70499 5.21533 4.29078V1C5.21533 0.585786 5.55112 0.25 5.96533 0.25Z" fill="#AFAFAF"/>
<path fill-rule="evenodd" clip-rule="evenodd" d="M1.76749 3.22937C2.76914 2.2772 4.16751 1.8291 5.77096 1.8291H14.2383C15.8457 1.8291 17.2449 2.27686 18.2448 3.23009C19.2504 4.18867 19.7548 5.56549 19.75 7.22317V16.3474C19.75 18.0051 19.243 19.3834 18.2371 20.3438C17.2366 21.2991 15.8377 21.7499 14.229 21.7499H5.77096C4.16301 21.7499 2.76302 21.2898 1.76225 20.3198C0.757741 19.3462 0.25 17.9507 0.25 16.2718V7.22213C0.25 5.5633 0.760038 4.18705 1.76749 3.22937ZM2.80096 4.31654C2.1571 4.9286 1.75 5.87387 1.75 7.22213V16.2718C1.75 17.6472 2.1594 18.6158 2.8062 19.2427C3.45673 19.8732 4.44222 20.2499 5.77096 20.2499H14.229C15.5663 20.2499 16.5528 19.878 17.2013 19.2589C17.8444 18.6448 18.25 17.6968 18.25 16.3474V7.22213L18.25 7.21982C18.2541 5.87097 17.8507 4.92673 17.2098 4.31582C16.5631 3.69931 15.5768 3.3291 14.2383 3.3291H5.77096C4.43772 3.3291 3.45061 3.69897 2.80096 4.31654Z" fill="#AFAFAF"/>
</svg>
