<svg width="18" height="16" viewBox="0 0 18 16" fill="none" xmlns="http://www.w3.org/2000/svg">
<path fill-rule="evenodd" clip-rule="evenodd" d="M9.10254 0.0793457C9.51675 0.0793457 9.85254 0.415132 9.85254 0.829346L9.85254 10.8635C9.85254 11.2777 9.51675 11.6135 9.10254 11.6135C8.68833 11.6135 8.35254 11.2777 8.35254 10.8635L8.35254 0.829346C8.35254 0.415132 8.68833 0.0793457 9.10254 0.0793457Z" fill="#04BA71"/>
<path fill-rule="evenodd" clip-rule="evenodd" d="M12.0615 7.89241C12.355 8.1847 12.3559 8.65957 12.0636 8.95307L9.63364 11.3931C9.4929 11.5344 9.30167 11.6138 9.10223 11.6138C8.90278 11.6138 8.71155 11.5344 8.57081 11.3931L6.14081 8.95307C5.84852 8.65957 5.84949 8.1847 6.14299 7.89241C6.43648 7.60012 6.91135 7.60109 7.20364 7.89459L9.10223 9.80098L11.0008 7.89459C11.2931 7.60109 11.768 7.60012 12.0615 7.89241Z" fill="#04BA71"/>
<path fill-rule="evenodd" clip-rule="evenodd" d="M16.0605 7.84427C16.0605 6.56169 15.022 5.52344 13.7405 5.52344H12.963C12.5488 5.52344 12.213 5.18765 12.213 4.77344C12.213 4.35922 12.5488 4.02344 12.963 4.02344H13.7405C15.8507 4.02344 17.5605 5.73352 17.5605 7.84427V11.9143C17.5605 14.0202 15.8539 15.7268 13.748 15.7268L4.46471 15.7268C2.35467 15.7268 0.643881 14.016 0.643881 11.9059V7.8351C0.643881 5.72979 2.3516 4.02344 4.45638 4.02344H5.24138C5.65559 4.02344 5.99138 4.35922 5.99138 4.77344C5.99138 5.18765 5.65559 5.52344 5.24138 5.52344L4.45638 5.52344C3.17949 5.52344 2.14388 6.55875 2.14388 7.8351L2.14388 11.9059C2.14388 13.1876 3.18309 14.2268 4.46471 14.2268L13.748 14.2268C15.0255 14.2268 16.0605 13.1917 16.0605 11.9143V7.84427Z" fill="#04BA71"/>
</svg>
