<svg width="20" height="20" viewBox="0 0 20 20" fill="none" xmlns="http://www.w3.org/2000/svg">
<path fill-rule="evenodd" clip-rule="evenodd" d="M1.52612 1.6865C2.53361 0.605621 3.96883 0 5.66512 0H14.3341C16.0344 0 17.4702 0.605298 18.4773 1.68678C19.4787 2.76222 20.0001 4.2476 20.0001 5.916V14.084C20.0001 15.7524 19.4787 17.2378 18.4771 18.3133C17.4699 19.3948 16.0338 20 14.3331 20H5.66512C3.96482 20 2.52919 19.3947 1.52241 18.3131C0.521276 17.2377 0.00012207 15.7523 0.00012207 14.084V5.916C0.00012207 4.24677 0.524085 2.76152 1.52612 1.6865ZM2.62338 2.70925C1.92316 3.46048 1.50012 4.55823 1.50012 5.916V14.084C1.50012 15.4427 1.92147 16.5403 2.62034 17.2911C3.31356 18.0358 4.33543 18.5 5.66512 18.5H14.3331C15.6634 18.5 16.6858 18.0357 17.3794 17.291C18.0786 16.5402 18.5001 15.4426 18.5001 14.084V5.916C18.5001 4.5574 18.0786 3.45978 17.3795 2.70897C16.686 1.9642 15.6638 1.5 14.3341 1.5H5.66512C4.34041 1.5 3.31814 1.96388 2.62338 2.70925Z" fill="white"/>
<path fill-rule="evenodd" clip-rule="evenodd" d="M6.83712 8.89795C6.22834 8.89795 5.73512 9.39116 5.73512 9.99995C5.73512 10.6087 6.22834 11.1019 6.83712 11.1019C7.44591 11.1019 7.93912 10.6087 7.93912 9.99995C7.93912 9.39162 7.44627 8.89872 6.83971 8.89795H6.83712ZM4.23512 9.99995C4.23512 8.56274 5.39991 7.39795 6.83712 7.39795H6.84012C8.27541 7.39936 9.43912 8.56439 9.43912 9.99995C9.43912 11.4372 8.27434 12.6019 6.83712 12.6019C5.39991 12.6019 4.23512 11.4372 4.23512 9.99995Z" fill="white"/>
<path fill-rule="evenodd" clip-rule="evenodd" d="M7.94202 10C7.94202 9.58579 8.27781 9.25 8.69202 9.25H15.01C15.4242 9.25 15.76 9.58579 15.76 10V11.852C15.76 12.2662 15.4242 12.602 15.01 12.602C14.5958 12.602 14.26 12.2662 14.26 11.852V10.75H8.69202C8.27781 10.75 7.94202 10.4142 7.94202 10Z" fill="white"/>
<path fill-rule="evenodd" clip-rule="evenodd" d="M12.1818 9.25C12.596 9.25 12.9318 9.58579 12.9318 10V11.852C12.9318 12.2662 12.596 12.602 12.1818 12.602C11.7676 12.602 11.4318 12.2662 11.4318 11.852V10C11.4318 9.58579 11.7676 9.25 12.1818 9.25Z" fill="white"/>
</svg>
