<svg width="19" height="21" viewBox="0 0 19 21" fill="none" xmlns="http://www.w3.org/2000/svg">
<path fill-rule="evenodd" clip-rule="evenodd" d="M0.0214844 10.0218C0.0214844 9.60759 0.357271 9.2718 0.771484 9.2718H12.8125C13.2267 9.2718 13.5625 9.60759 13.5625 10.0218C13.5625 10.436 13.2267 10.7718 12.8125 10.7718H0.771484C0.357271 10.7718 0.0214844 10.436 0.0214844 10.0218Z" fill="#04BA71"/>
<path fill-rule="evenodd" clip-rule="evenodd" d="M9.35335 6.57656C9.64564 6.28307 10.1205 6.2821 10.414 6.57439L13.342 9.49039C13.4833 9.63113 13.5628 9.82236 13.5628 10.0218C13.5628 10.2213 13.4833 10.4125 13.342 10.5532L10.414 13.4692C10.1205 13.7615 9.64564 13.7605 9.35335 13.467C9.06106 13.1736 9.06203 12.6987 9.35553 12.4064L11.7499 10.0218L9.35553 7.63722C9.06203 7.34493 9.06106 6.87006 9.35335 6.57656Z" fill="#04BA71"/>
<path fill-rule="evenodd" clip-rule="evenodd" d="M9.18939 1.522C7.56748 1.522 6.25439 2.83535 6.25439 4.456V5.389C6.25439 5.80322 5.91861 6.139 5.50439 6.139C5.09018 6.139 4.75439 5.80322 4.75439 5.389V4.456C4.75439 2.00666 6.73931 0.0220032 9.18939 0.0220032H14.0734C16.5176 0.0220032 18.4984 2.00279 18.4984 4.447V15.587C18.4984 18.0362 16.5126 20.022 14.0634 20.022H9.17839C6.73491 20.022 4.75439 18.04 4.75439 15.597V14.655C4.75439 14.2408 5.09018 13.905 5.50439 13.905C5.91861 13.905 6.25439 14.2408 6.25439 14.655V15.597C6.25439 17.2121 7.56387 18.522 9.17839 18.522H14.0634C15.6842 18.522 16.9984 17.2078 16.9984 15.587V4.447C16.9984 2.83122 15.6892 1.522 14.0734 1.522H9.18939Z" fill="#04BA71"/>
</svg>
