<svg width="18" height="20" viewBox="0 0 18 20" fill="none" xmlns="http://www.w3.org/2000/svg">
<path fill-rule="evenodd" clip-rule="evenodd" d="M5.08619 0.0117477H11.7378C11.942 0.0117477 12.1374 0.0950256 12.2788 0.242347L17.3438 5.51835C17.4779 5.65802 17.5528 5.84413 17.5528 6.03775V15.2012C17.5692 17.7005 15.6013 19.7628 13.1042 19.8641C13.0941 19.8645 13.084 19.8647 13.0738 19.8647H5.09483C5.07005 19.8653 5.04834 19.8652 5.03266 19.8651C5.00881 19.8649 5.0047 19.8647 4.99281 19.8647L4.97613 19.8646C2.45184 19.8084 0.450477 17.719 0.500807 15.1959V4.49075L0.501015 4.47308C0.559634 1.98595 2.59871 0.00298277 5.08619 0.0117477ZM2.00081 4.50006V15.2037L2.00063 15.2201C1.96368 16.9175 3.30792 18.3243 5.00439 18.3648L5.02355 18.3649L5.04495 18.3651L5.05712 18.3652C5.05974 18.3652 5.06075 18.3651 5.06063 18.3651C5.06868 18.3649 5.07674 18.3647 5.08481 18.3647H13.0578C14.741 18.2888 16.0649 16.8957 16.0528 15.2091L16.0528 15.2037L16.0528 6.33948L11.4181 1.51175H5.08192C3.41287 1.50533 2.04454 2.8336 2.00081 4.50006Z" fill="white"/>
<path fill-rule="evenodd" clip-rule="evenodd" d="M11.4751 0C11.8893 0 12.2251 0.335786 12.2251 0.75V3.659C12.2251 4.66521 13.038 5.48066 14.0443 5.484H16.7981C17.2123 5.484 17.5481 5.81979 17.5481 6.234C17.5481 6.64821 17.2123 6.984 16.7981 6.984H14.0431L14.041 6.984C12.2077 6.97883 10.7251 5.49248 10.7251 3.659V0.75C10.7251 0.335786 11.0609 0 11.4751 0Z" fill="white"/>
<path fill-rule="evenodd" clip-rule="evenodd" d="M5.13811 13.3585C5.13811 12.9443 5.47389 12.6085 5.88811 12.6085H11.2881C11.7023 12.6085 12.0381 12.9443 12.0381 13.3585C12.0381 13.7727 11.7023 14.1085 11.2881 14.1085H5.88811C5.47389 14.1085 5.13811 13.7727 5.13811 13.3585Z" fill="white"/>
<path fill-rule="evenodd" clip-rule="evenodd" d="M5.13721 9.60596C5.13721 9.19174 5.47299 8.85596 5.88721 8.85596H9.24321C9.65742 8.85596 9.99321 9.19174 9.99321 9.60596C9.99321 10.0202 9.65742 10.356 9.24321 10.356H5.88721C5.47299 10.356 5.13721 10.0202 5.13721 9.60596Z" fill="white"/>
</svg>
