<svg width="26" height="32" viewBox="0 0 26 32" fill="none" xmlns="http://www.w3.org/2000/svg">
<path d="M20.3243 15.9998H5.18945C4.00018 15.9998 3.02734 16.9728 3.02734 18.1619V22.4322C3.02734 23.6215 4.00043 24.5943 5.18945 24.5943H20.325C21.5142 24.5943 22.4871 23.6212 22.4871 22.4322V18.1619C22.4871 16.9726 21.514 15.9998 20.3247 15.9998H20.3243ZM9.72595 20.6882C9.47069 20.9009 9.10674 21.0074 8.63312 21.0074H7.72595V22.5741H6.82123V18.217H8.69192C9.12351 18.217 9.46727 18.3294 9.72381 18.5539C9.9803 18.7786 10.1087 19.1264 10.1087 19.5978C10.1082 20.1122 9.98104 20.4754 9.72603 20.6882L9.72595 20.6882ZM14.421 21.7616C14.1052 22.3034 13.6183 22.5741 12.9592 22.5741H11.0807V18.2169H12.9592C13.2295 18.2214 13.4543 18.2524 13.6338 18.3116C13.9395 18.412 14.1869 18.5966 14.3762 18.8647C14.5284 19.0813 14.6317 19.3157 14.687 19.5683C14.7419 19.8203 14.7697 20.0608 14.7697 20.2895C14.7699 20.8689 14.6536 21.3598 14.421 21.7616ZM18.802 18.9886H16.6V19.9902H18.5299V20.747H16.6V22.5741H15.695L15.6948 18.2229H18.8019L18.802 18.9886Z" fill="#04454D"/>
<path d="M24.4961 5.97551L19.5385 1.0181C18.9584 0.437735 17.9014 0 17.0816 0H3.02698C1.35768 0 0 1.35818 0 3.02698V28.973C0 30.6418 1.35793 32 3.02698 32H22.4868C24.1556 32 25.5138 30.6418 25.5138 28.973V8.43225C25.5138 7.61189 25.0763 6.55545 24.496 5.97507L24.4961 5.97551ZM22.5657 6.49046C22.5389 6.48997 22.5133 6.48653 22.487 6.48653H20.3249C19.6096 6.48653 19.0277 5.90444 19.0277 5.18935V3.02724C19.0277 3.00044 19.0243 2.97535 19.0238 2.94904L22.5657 6.49046ZM23.7842 28.9734C23.7842 29.6887 23.2021 30.2706 22.487 30.2706L3.02717 30.2708C2.31181 30.2708 1.72999 29.6887 1.72999 28.9736V3.02758C1.72999 2.31223 2.31207 1.7304 3.02717 1.7304H16.0002C16.7155 1.7304 17.2974 2.31249 17.2974 3.02758V5.18969C17.2974 6.85849 18.6555 8.21666 20.3243 8.21666H22.4864C23.2018 8.21666 23.7836 8.79875 23.7836 9.51384V16.0007L23.7842 28.9734Z" fill="#04454D"/>
<path d="M12.8054 18.9737H11.9648V21.8175H12.8054C13.2358 21.8175 13.5358 21.606 13.7057 21.1823C13.7982 20.9491 13.8449 20.672 13.8449 20.3511C13.8449 19.9079 13.7753 19.5676 13.6361 19.33C13.4969 19.0927 13.22 18.9737 12.8054 18.9737Z" fill="#04454D"/>
<path d="M8.54692 18.9737H7.72656V20.2566H8.54692C8.75448 20.2566 8.91629 20.2052 9.03162 20.1005C9.1472 19.9962 9.2045 19.8302 9.2045 19.6045C9.2045 19.378 9.14696 19.2167 9.03162 19.1198C8.91604 19.0221 8.75497 18.9737 8.54692 18.9737Z" fill="#04454D"/>
</svg>
