<svg width="19" height="19" viewBox="0 0 19 19" fill="none" xmlns="http://www.w3.org/2000/svg">
<path fill-rule="evenodd" clip-rule="evenodd" d="M11.2156 1.50055C11.2613 1.08887 11.6321 0.792198 12.0438 0.837916C15.4762 1.21909 18.1881 3.92717 18.573 7.35976C18.6192 7.77139 18.3229 8.14251 17.9112 8.18866C17.4996 8.23482 17.1285 7.93854 17.0823 7.52691C16.7756 4.79116 14.6141 2.63257 11.8782 2.32875C11.4665 2.28303 11.1699 1.91224 11.2156 1.50055Z" fill="#04BA71"/>
<path fill-rule="evenodd" clip-rule="evenodd" d="M11.2246 4.39282C11.3036 3.98621 11.6972 3.72061 12.1038 3.79959C13.8802 4.14462 15.2678 5.53368 15.6137 7.30909C15.6929 7.71566 15.4275 8.10946 15.0209 8.18866C14.6143 8.26786 14.2205 8.00248 14.1413 7.59591C13.9122 6.41964 12.9932 5.50037 11.8178 5.27207C11.4112 5.19309 11.1456 4.79944 11.2246 4.39282Z" fill="#04BA71"/>
<path fill-rule="evenodd" clip-rule="evenodd" d="M3.1102 3.58215C3.07187 3.62493 3.03258 3.6631 3.01288 3.68223C3.01049 3.68455 3.00839 3.68659 3.00661 3.68833L3.0042 3.69068C2.96852 3.72554 2.93549 3.75781 2.8992 3.796C2.82702 3.87198 2.74729 3.96626 2.67352 4.08579C2.53227 4.31467 2.3874 4.67609 2.42191 5.24104C2.49368 6.41609 3.3513 8.57081 6.93407 12.1527C10.5164 15.7341 12.6707 16.5905 13.8452 16.6616C14.4098 16.6958 14.771 16.5507 14.9998 16.4093C15.1193 16.3355 15.2135 16.2557 15.2895 16.1834C15.3276 16.1472 15.3598 16.1143 15.3946 16.0786L15.3972 16.0759C15.399 16.0741 15.401 16.072 15.4033 16.0696C15.4225 16.0499 15.4608 16.0105 15.5037 15.972C16.1236 15.3506 16.4624 14.9127 16.6279 14.5892C16.7785 14.2945 16.7615 14.1465 16.7248 14.0354C16.6698 13.8694 16.5204 13.6502 16.1735 13.2946C16.0069 13.1238 15.8145 12.9404 15.5898 12.7267L15.5771 12.7147C15.3589 12.5071 15.1153 12.2754 14.8576 12.0179C14.4375 11.598 14.1824 11.5587 14.0142 11.5631C13.9019 11.5661 13.772 11.592 13.5953 11.6465C13.5072 11.6737 13.4157 11.7053 13.3106 11.7421C13.3002 11.7457 13.2896 11.7495 13.2789 11.7532C13.1854 11.786 13.0811 11.8225 12.9744 11.8571C12.4842 12.0159 11.8549 12.1638 11.0872 11.9757C10.3356 11.7916 9.5494 11.3105 8.66276 10.4241C7.77609 9.53762 7.29475 8.75145 7.11027 7.99987C6.92185 7.2322 7.0693 6.60285 7.22775 6.11239C7.26224 6.00564 7.29873 5.90124 7.33144 5.80765C7.33518 5.79695 7.33888 5.78639 7.34251 5.77598C7.37922 5.67083 7.41076 5.5793 7.4379 5.49112C7.49232 5.31435 7.51816 5.18429 7.52106 5.0719C7.5254 4.90337 7.48582 4.64812 7.06598 4.22817C7.06595 4.22814 7.06602 4.22821 7.06598 4.22817M7.06598 4.22817C6.80528 3.96754 6.57111 3.72109 6.3617 3.50071L6.35668 3.49543C6.14294 3.27049 5.95972 3.07787 5.78894 2.91093C5.43336 2.56336 5.21473 2.41377 5.04903 2.35868C4.93878 2.32204 4.79124 2.30463 4.49623 2.45552C4.17223 2.62123 3.73343 2.96076 3.1102 3.58215M7.44454 2.46268C7.65638 2.68563 7.8794 2.92033 8.12651 3.16738C8.76437 3.80535 9.03788 4.43825 9.02056 5.11054C9.01262 5.41857 8.94396 5.69711 8.8715 5.93248C8.83521 6.05036 8.7952 6.16579 8.75869 6.27039C8.75502 6.28089 8.75139 6.29128 8.74779 6.30157C8.71429 6.39745 8.68379 6.48477 8.65511 6.57354C8.53279 6.95215 8.47499 7.2673 8.56703 7.64231C8.66303 8.03339 8.94787 8.58804 9.72328 9.36326C10.4987 10.1385 11.0533 10.423 11.4442 10.5188C11.8189 10.6106 12.1338 10.5527 12.5121 10.4301C12.6009 10.4014 12.6881 10.3708 12.784 10.3372C12.7942 10.3336 12.8046 10.33 12.8151 10.3263C12.9197 10.2897 13.035 10.2496 13.1529 10.2132C13.3882 10.1406 13.6666 10.0718 13.9746 10.0636C14.647 10.0459 15.2798 10.3191 15.9179 10.9568C16.1623 11.2011 16.3946 11.4221 16.6152 11.6319L16.6236 11.6399C16.8435 11.8491 17.0574 12.0525 17.2473 12.2473C17.6136 12.6228 17.9785 13.0499 18.1488 13.564C18.3372 14.1333 18.2562 14.6995 17.9634 15.2721C17.6869 15.8128 17.2076 16.3898 16.5459 17.0511C16.5324 17.0647 16.5183 17.0777 16.5037 17.0902C16.5002 17.0937 16.4901 17.1037 16.4705 17.1237L16.4647 17.1297C16.4313 17.164 16.382 17.2145 16.3232 17.2704C16.1964 17.391 16.0203 17.542 15.7884 17.6853C15.3144 17.9783 14.6485 18.213 13.7545 18.1589C12.0117 18.0533 9.52187 16.8609 5.87354 13.2135C2.22475 9.56559 1.03117 7.07563 0.924698 5.33249C0.870086 4.43836 1.10434 3.7723 1.39703 3.29803C1.54024 3.06597 1.69118 2.88974 1.8117 2.76288C1.86774 2.7039 1.91832 2.6545 1.95266 2.62097C1.95463 2.61905 1.95655 2.61717 1.95841 2.61536C1.97865 2.59558 1.98865 2.58548 1.99212 2.58203C2.00465 2.56741 2.01773 2.55327 2.03135 2.53965C2.69424 1.8767 3.27221 1.39675 3.81319 1.12006C4.38628 0.826944 4.95281 0.745991 5.52221 0.935272C6.03614 1.10612 6.4627 1.47194 6.83747 1.83828C7.03077 2.02724 7.23282 2.23988 7.44055 2.45849L7.44454 2.46268Z" fill="#04BA71"/>
</svg>
