<svg width="59" height="12" viewBox="0 0 59 12" fill="none" xmlns="http://www.w3.org/2000/svg">
<path d="M15.2952 7.20256V0.285156H17.7794V7.11598C17.7794 8.72101 18.7117 9.82433 20.4888 9.82433C22.2659 9.82433 23.1794 8.7199 23.1794 7.11598V0.285156H25.6813V7.18591C25.6813 10.0497 23.9897 11.9988 20.4888 11.9988C16.9857 11.9988 15.2952 10.0319 15.2952 7.20256Z" fill="url(#paint0_linear_26_158)"/>
<path d="M31.5842 10.1698L32.9117 8.30729C33.7231 9.1531 34.9818 9.85904 36.5691 9.85904C37.9155 9.85904 38.5704 9.23856 38.5704 8.58257C38.5704 6.54686 31.946 7.94433 31.946 3.61429C31.946 1.69958 33.6021 0.112305 36.3105 0.112305C38.1397 0.112305 39.6571 0.663965 40.7959 1.71734L39.4328 3.51107C38.5027 2.64861 37.2595 2.25235 36.0862 2.25235C35.034 2.25235 34.4479 2.71743 34.4479 3.40784C34.4479 5.23597 41.0545 4.01167 41.0545 8.30729C41.0545 10.4118 39.5538 11.9991 36.4492 11.9991C34.2415 11.9991 32.6542 11.2565 31.5842 10.1698Z" fill="url(#paint1_linear_26_158)"/>
<path d="M46.8025 6.00056C46.8025 2.50412 49.3588 0 52.8552 0C56.3683 0 58.9246 2.50412 58.9246 6.00056C58.9246 9.49588 56.3683 12 52.8552 12C49.3588 12 46.8025 9.49588 46.8025 6.00056ZM56.385 6.00056C56.385 3.82721 54.9941 2.19221 52.8552 2.19221C50.7163 2.19221 49.3421 3.82721 49.3421 6.00056C49.3421 8.15725 50.7163 9.8089 52.8552 9.8089C54.9941 9.8089 56.385 8.15725 56.385 6.00056Z" fill="url(#paint2_linear_26_158)"/>
<path d="M6.80414 7.40901C8.04621 7.11598 9.3238 6.02931 9.3238 3.9936C9.3238 1.85467 7.85751 0.285156 5.45884 0.285156H0.0754395V2.44074H2.52517H2.7072H5.09699C6.08043 2.44074 6.8219 3.02681 6.8219 3.9936C6.8219 4.95928 6.07932 5.54646 5.09699 5.54646H2.7072H2.52517H0.0765492V11.7912H2.52628V7.70316H4.32112L6.57993 11.7923H9.39262L6.80414 7.40901Z" fill="url(#paint3_linear_26_158)"/>
<defs>
<linearGradient id="paint0_linear_26_158" x1="17.1323" y1="10.1285" x2="17.5024" y2="1.60587" gradientUnits="userSpaceOnUse">
<stop stop-color="#04BA71"/>
<stop offset="1" stop-color="#52E34F"/>
</linearGradient>
<linearGradient id="paint1_linear_26_158" x1="33.2592" y1="10.1012" x2="33.677" y2="1.45642" gradientUnits="userSpaceOnUse">
<stop stop-color="#04BA71"/>
<stop offset="1" stop-color="#52E34F"/>
</linearGradient>
<linearGradient id="paint2_linear_26_158" x1="48.9466" y1="10.084" x2="49.2795" y2="1.34923" gradientUnits="userSpaceOnUse">
<stop stop-color="#04BA71"/>
<stop offset="1" stop-color="#52E34F"/>
</linearGradient>
<linearGradient id="paint3_linear_26_158" x1="1.72341" y1="9.95503" x2="2.1214" y2="1.58573" gradientUnits="userSpaceOnUse">
<stop stop-color="#04BA71"/>
<stop offset="1" stop-color="#52E34F"/>
</linearGradient>
</defs>
</svg>
