<svg width="32" height="20" viewBox="0 0 32 20" fill="none" xmlns="http://www.w3.org/2000/svg">
<path d="M17.5486 19.3249C18.3606 19.3249 18.6926 18.7836 18.6832 18.1049C18.6419 15.549 19.6352 14.1731 21.4284 15.9664C23.4124 17.9503 23.823 19.3249 26.2322 19.3249H30.4987C31.576 19.3249 32 18.9782 32 18.4343C32 17.2836 30.1054 15.2531 28.5001 13.7624C26.2522 11.6759 26.1469 11.6265 28.0828 9.11464C30.4841 5.9961 33.6253 2.00027 30.8467 2.00027H25.5389C24.5096 2.00027 24.435 2.58025 24.0683 3.44421C22.7417 6.57341 20.2205 10.6266 19.2632 10.0066C18.2619 9.35996 18.7206 6.79874 18.7966 2.99223C18.8165 1.98694 18.8112 1.29763 17.2753 0.940314C16.4366 0.746989 15.6207 0.666992 14.8634 0.666992C11.8328 0.666992 9.74226 1.93761 10.9302 2.15893C13.0248 2.54958 12.8235 7.08139 12.3355 9.03864C11.4849 12.4465 8.28765 6.34009 6.95571 3.29888C6.63439 2.56825 6.53573 2.00027 5.38911 2.00027H1.04929C0.393317 2.00027 0 2.21359 0 2.68824C0 3.49087 3.9465 11.6479 7.71434 15.7144C11.3889 19.6809 15.0207 19.3249 17.5486 19.3249Z" fill="#585858"/>
</svg>
