<svg width="23" height="22" viewBox="0 0 23 22" fill="none" xmlns="http://www.w3.org/2000/svg">
<path fill-rule="evenodd" clip-rule="evenodd" d="M11.5 6.57715C11.9142 6.57715 12.25 6.91293 12.25 7.32715V14.6535C12.25 15.0677 11.9142 15.4035 11.5 15.4035C11.0858 15.4035 10.75 15.0677 10.75 14.6535V7.32715C10.75 6.91293 11.0858 6.57715 11.5 6.57715Z" fill="#AFAFAF"/>
<path fill-rule="evenodd" clip-rule="evenodd" d="M7.08398 10.9902C7.08398 10.576 7.41977 10.2402 7.83398 10.2402H15.1673C15.5815 10.2402 15.9173 10.576 15.9173 10.9902C15.9173 11.4044 15.5815 11.7402 15.1673 11.7402H7.83398C7.41977 11.7402 7.08398 11.4044 7.08398 10.9902Z" fill="#AFAFAF"/>
<path fill-rule="evenodd" clip-rule="evenodd" d="M2.38354 2.05377C3.46018 0.898836 4.99524 0.25 6.81429 0.25H16.1857C18.009 0.25 19.5445 0.898535 20.6204 2.05412C21.6906 3.20365 22.25 4.79384 22.25 6.58516V15.4148C22.25 17.2062 21.6906 18.7964 20.6204 19.9459C19.5445 21.1015 18.009 21.75 16.1857 21.75H6.81429C4.99096 21.75 3.4555 21.1015 2.37964 19.9459C1.30943 18.7964 0.75 17.2062 0.75 15.4148V6.58516C0.75 4.79292 1.31235 3.20285 2.38354 2.05377ZM3.48074 3.07659C2.71146 3.90181 2.25 5.10432 2.25 6.58516V15.4148C2.25 16.8966 2.70962 18.099 3.4775 18.9238C4.23974 19.7425 5.36142 20.25 6.81429 20.25H16.1857C17.6386 20.25 18.7603 19.7425 19.5225 18.9238C20.2904 18.099 20.75 16.8966 20.75 15.4148V6.58516C20.75 5.1034 20.2904 3.90101 19.5225 3.07623C18.7603 2.25751 17.6386 1.75 16.1857 1.75H6.81429C5.36666 1.75 4.24458 2.25721 3.48074 3.07659Z" fill="#AFAFAF"/>
</svg>
