<svg width="23" height="33" viewBox="0 0 23 33" fill="none" xmlns="http://www.w3.org/2000/svg">
<path d="M5.69774 17.1157C4.95857 17.3242 4.281 17.4139 3.66503 17.385C3.04906 17.3454 2.52035 17.1585 2.0789 16.8243C1.64772 16.4873 1.30894 15.9908 1.06255 15.335C0.816162 14.6791 0.692968 13.8285 0.692968 12.7832V12.4792C0.692968 11.4979 0.821295 10.619 1.07795 9.84264C1.3346 9.06625 1.68879 8.39036 2.1405 7.81496C2.59221 7.23957 3.12092 6.75979 3.72663 6.37563C4.3426 5.98857 4.99963 5.6966 5.69774 5.49972C6.32397 5.3231 6.90915 5.23273 7.45325 5.22861C8.00763 5.2216 8.49014 5.32018 8.90079 5.52437C9.3217 5.72566 9.66048 6.04611 9.91714 6.48573C10.1841 6.92245 10.3432 7.50157 10.3945 8.22309L7.53025 9.0309C7.47892 8.74671 7.39679 8.5192 7.28386 8.34839C7.17093 8.1669 7.03234 8.03532 6.86808 7.95365C6.70382 7.86131 6.51903 7.81742 6.31371 7.822C6.11865 7.81301 5.91333 7.83892 5.69774 7.89972C5.38975 7.98658 5.1023 8.12632 4.83538 8.31893C4.57872 8.49798 4.35286 8.74301 4.15781 9.05403C3.97302 9.35148 3.82416 9.71879 3.71123 10.156C3.60857 10.5903 3.55723 11.0954 3.55723 11.6714V12.0074C3.55723 12.6261 3.6137 13.1328 3.72663 13.5276C3.84982 13.9089 4.00895 14.2053 4.204 14.417C4.39906 14.618 4.62492 14.741 4.88157 14.7859C5.13823 14.8202 5.41028 14.7968 5.69774 14.7157C6.22131 14.5681 6.63709 14.3228 6.94508 13.9799C7.26333 13.6235 7.45839 13.1472 7.53025 12.5509L10.3945 11.7431C10.3535 12.5013 10.2046 13.1727 9.94794 13.757C9.70155 14.3385 9.3679 14.8486 8.94698 15.2873C8.53634 15.7232 8.05383 16.0939 7.49945 16.3996C6.94508 16.6946 6.34451 16.9333 5.69774 17.1157ZM12.0108 17.9272L19.9415 15.6906V18.0586L14.7827 19.5135V21.1775L16.5536 20.678C17.3031 20.4667 17.9498 20.3696 18.4939 20.3868C19.0483 20.3905 19.5052 20.4963 19.8645 20.7043C20.2341 20.8987 20.5061 21.19 20.6806 21.5781C20.8552 21.9556 20.9424 22.4109 20.9424 22.9443C20.9424 24.0963 20.5831 25.0989 19.8645 25.9523C19.1561 26.7921 18.0525 27.4233 16.5536 27.846L12.0108 29.1272V17.9272ZM16.2456 25.5649C16.9129 25.3767 17.3852 25.1315 17.6624 24.8293C17.9396 24.5165 18.0782 24.1574 18.0782 23.7521C18.0782 23.3467 17.9396 23.0712 17.6624 22.9253C17.3852 22.7689 16.9129 22.7847 16.2456 22.9729L14.7827 23.3855V25.9775L16.2456 25.5649Z" fill="white"/>
<path d="M16.8616 13.9672C16.1532 14.167 15.4808 14.2499 14.8443 14.2161C14.2078 14.1823 13.6483 14.0041 13.1658 13.6815C12.6935 13.3454 12.3188 12.859 12.0416 12.2226C11.7645 11.5754 11.6259 10.7398 11.6259 9.71582V9.39582C11.6259 8.41448 11.7645 7.53273 12.0416 6.75055C12.3188 5.96838 12.6935 5.2867 13.1658 4.70551C13.6483 4.12143 14.2078 3.63297 14.8443 3.24012C15.4808 2.84727 16.1532 2.55096 16.8616 2.35118C17.57 2.1514 18.2424 2.06842 18.8789 2.10224C19.5154 2.13606 20.0698 2.31038 20.542 2.62519C21.0246 2.93711 21.4044 3.40598 21.6816 4.03181C21.9588 4.65763 22.0974 5.46121 22.0974 6.44254V6.76254C22.0974 7.78654 21.9588 8.7003 21.6816 9.50381C21.4044 10.2966 21.0246 10.9958 20.542 11.6012C20.0698 12.193 19.5154 12.6854 18.8789 13.0782C18.2424 13.4711 17.57 13.7674 16.8616 13.9672ZM16.8616 11.5672C17.1696 11.4803 17.4673 11.3484 17.7548 11.1713C18.0422 10.9835 18.2937 10.7366 18.5093 10.4305C18.7249 10.1137 18.8995 9.72312 19.0329 9.25881C19.1664 8.7945 19.2331 8.23168 19.2331 7.57035V7.25035C19.2331 6.63168 19.1664 6.1385 19.0329 5.77081C18.8995 5.39245 18.7249 5.11634 18.5093 4.94247C18.2937 4.75794 18.0422 4.65821 17.7548 4.64328C17.4673 4.62835 17.1696 4.66432 16.8616 4.75118C16.5536 4.83804 16.2559 4.97001 15.9685 5.14708C15.681 5.32415 15.4295 5.56575 15.2139 5.87189C14.9983 6.16736 14.8238 6.54191 14.6903 6.99555C14.5569 7.43852 14.4901 7.96934 14.4901 8.58801V8.90801C14.4901 9.56934 14.5569 10.0945 14.6903 10.4836C14.8238 10.8726 14.9983 11.1647 15.2139 11.3599C15.4295 11.5444 15.681 11.6495 15.9685 11.6751C16.2559 11.69 16.5536 11.654 16.8616 11.5672ZM5.23576 31.246C4.58899 31.4284 3.98841 31.5285 3.43404 31.5461C2.87967 31.5532 2.39202 31.456 1.97111 31.2547C1.56046 31.0506 1.22681 30.7287 0.970155 30.289C0.723766 29.8465 0.58004 29.2577 0.538975 28.5226L3.40324 27.7148C3.47511 28.2706 3.67016 28.6369 3.98841 28.8138C4.30667 28.98 4.72758 28.9893 5.25116 28.8417C5.50781 28.7693 5.74907 28.6639 5.97492 28.5255C6.21104 28.3843 6.4215 28.1969 6.60629 27.9635C6.79108 27.7194 6.94508 27.4306 7.06827 27.0972C7.19147 26.7531 7.27873 26.3445 7.33006 25.8714L4.08081 26.7877V24.5797L7.31466 23.6677C7.212 22.8647 6.98101 22.3538 6.62169 22.1351C6.26238 21.9058 5.8004 21.8708 5.23576 22.03C5.03043 22.0879 4.82511 22.1778 4.61979 22.2997C4.42473 22.4081 4.24507 22.5547 4.08081 22.7397C3.91655 22.9141 3.77282 23.1253 3.64963 23.3733C3.52644 23.6108 3.44431 23.8846 3.40324 24.1948L0.538975 25.0026C0.590306 24.2522 0.744299 23.5847 1.00095 23.0003C1.26787 22.4131 1.60666 21.9015 2.01731 21.4657C2.43822 21.027 2.92073 20.6562 3.46484 20.3535C4.00895 20.0507 4.59925 19.8095 5.23576 19.63C5.93386 19.4331 6.58576 19.3559 7.19147 19.3984C7.80744 19.4381 8.34128 19.6182 8.79299 19.9388C9.2447 20.2594 9.59889 20.7355 9.85554 21.3671C10.1122 21.9987 10.2405 22.8052 10.2405 23.7865V24.0905C10.2405 25.1359 10.1173 26.0559 9.87094 26.8508C9.62455 27.6456 9.28064 28.3346 8.83919 28.9177C8.40801 29.498 7.88443 29.9817 7.26846 30.3687C6.65249 30.7451 5.97492 31.0375 5.23576 31.246Z" fill="#FFE600"/>
</svg>
