<svg width="256" height="50" viewBox="0 0 256 50" fill="none" xmlns="http://www.w3.org/2000/svg">
<mask id="mask0_62_184" style="mask-type:alpha" maskUnits="userSpaceOnUse" x="4" y="9" width="55" height="41">
<path fill-rule="evenodd" clip-rule="evenodd" d="M54.9248 50C57.3976 45.9301 58.8216 41.1525 58.8216 36.0423C58.8216 21.1757 46.7698 9.12395 31.9032 9.12395C17.0366 9.12395 4.98486 21.1757 4.98486 36.0423C4.98486 41.1525 6.40884 45.9301 8.88163 50H54.9248Z" fill="#D9D9D9"/>
</mask>
<g mask="url(#mask0_62_184)">
<path d="M19.5771 33.0514L0.99707 48.6797V52.9909L41.8731 50.8353L19.5771 33.0514Z" fill="#EFA021"/>
<path d="M41.9539 26.0726L20.9365 51.4955L36.0259 59.9698L60.8156 47.2583L41.9539 26.0726Z" fill="#FFC827"/>
</g>
<path fill-rule="evenodd" clip-rule="evenodd" d="M40.0921 10.3921C50.9546 13.8571 58.8216 24.031 58.8216 36.0423C58.8216 41.1525 57.3977 45.9301 54.9249 50H60.5993C62.6538 45.784 63.8065 41.0478 63.8065 36.0423C63.8065 22.1641 54.9449 10.3555 42.5714 5.96637L40.0921 10.3921ZM26.4789 4.59834C11.4429 7.17376 0 20.2717 0 36.0423C0 41.0478 1.15273 45.784 3.2072 50H8.88166C6.40886 45.9301 4.98488 41.1525 4.98488 36.0423C4.98488 23.4587 13.6194 12.8918 25.2868 9.94314L26.4789 4.59834Z" fill="url(#paint0_linear_62_184)"/>
<path d="M40.989 6.64968e-07L30.5442 1.14942L26.8123 17.0045L31.3426 16.5059L29.0507 30.4006L40.095 10.3946L35.4389 10.907L40.989 6.64968e-07Z" fill="url(#paint1_linear_62_184)"/>
<path d="M80.4266 14.4H82.5866V19.584H88.7066V14.4H90.8666V27H88.7066V21.456H82.5866V27H80.4266V14.4ZM97.8824 27.198C97.2464 27.198 96.6464 27.102 96.0824 26.91C95.5184 26.706 95.0204 26.406 94.5884 26.01C94.1684 25.602 93.8324 25.092 93.5804 24.48C93.3284 23.868 93.2024 23.148 93.2024 22.32V21.96C93.2024 21.168 93.3224 20.478 93.5624 19.89C93.8024 19.302 94.1264 18.816 94.5344 18.432C94.9544 18.036 95.4344 17.742 95.9744 17.55C96.5144 17.358 97.0904 17.262 97.7024 17.262C99.1544 17.262 100.264 17.652 101.032 18.432C101.812 19.212 102.202 20.328 102.202 21.78V22.788H95.2184C95.2304 23.28 95.3084 23.7 95.4524 24.048C95.6084 24.384 95.8064 24.66 96.0464 24.876C96.2984 25.08 96.5804 25.23 96.8924 25.326C97.2164 25.422 97.5464 25.47 97.8824 25.47C98.5664 25.47 99.0644 25.362 99.3764 25.146C99.7004 24.93 99.9224 24.648 100.042 24.3H102.022C101.83 25.248 101.356 25.968 100.6 26.46C99.8564 26.952 98.9504 27.198 97.8824 27.198ZM97.7924 18.99C97.4564 18.99 97.1324 19.032 96.8204 19.116C96.5204 19.2 96.2504 19.338 96.0104 19.53C95.7824 19.71 95.5964 19.95 95.4524 20.25C95.3084 20.538 95.2304 20.892 95.2184 21.312H100.222C100.21 20.868 100.138 20.496 100.006 20.196C99.8864 19.896 99.7184 19.656 99.5024 19.476C99.2864 19.296 99.0284 19.17 98.7284 19.098C98.4404 19.026 98.1284 18.99 97.7924 18.99ZM108.684 27.198C107.028 27.198 105.774 26.778 104.922 25.938C104.07 25.098 103.644 23.892 103.644 22.32V21.96C103.644 20.46 104.07 19.302 104.922 18.486C105.774 17.67 107.028 17.262 108.684 17.262V14.4H110.664V17.262C112.308 17.262 113.556 17.67 114.408 18.486C115.272 19.302 115.704 20.46 115.704 21.96V22.32C115.704 23.892 115.272 25.098 114.408 25.938C113.556 26.778 112.308 27.198 110.664 27.198V30.6H108.684V27.198ZM113.688 21.96C113.688 20.964 113.442 20.22 112.95 19.728C112.47 19.236 111.696 18.99 110.628 18.99V25.47C111.696 25.47 112.47 25.212 112.95 24.696C113.442 24.168 113.688 23.376 113.688 22.32V21.96ZM105.66 22.32C105.66 23.376 105.906 24.168 106.398 24.696C106.89 25.212 107.664 25.47 108.72 25.47V18.99C107.652 18.99 106.872 19.236 106.38 19.728C105.9 20.22 105.66 20.958 105.66 21.942V22.32ZM119.758 19.152H116.608V17.46H124.888V19.152H121.738V27H119.758V19.152ZM130.472 27.198C129.836 27.198 129.236 27.102 128.672 26.91C128.108 26.706 127.61 26.406 127.178 26.01C126.758 25.602 126.422 25.092 126.17 24.48C125.918 23.868 125.792 23.148 125.792 22.32V21.96C125.792 21.168 125.912 20.478 126.152 19.89C126.392 19.302 126.716 18.816 127.124 18.432C127.544 18.036 128.024 17.742 128.564 17.55C129.104 17.358 129.68 17.262 130.292 17.262C131.744 17.262 132.854 17.652 133.622 18.432C134.402 19.212 134.792 20.328 134.792 21.78V22.788H127.808C127.82 23.28 127.898 23.7 128.042 24.048C128.198 24.384 128.396 24.66 128.636 24.876C128.888 25.08 129.17 25.23 129.482 25.326C129.806 25.422 130.136 25.47 130.472 25.47C131.156 25.47 131.654 25.362 131.966 25.146C132.29 24.93 132.512 24.648 132.632 24.3H134.612C134.42 25.248 133.946 25.968 133.19 26.46C132.446 26.952 131.54 27.198 130.472 27.198ZM130.382 18.99C130.046 18.99 129.722 19.032 129.41 19.116C129.11 19.2 128.84 19.338 128.6 19.53C128.372 19.71 128.186 19.95 128.042 20.25C127.898 20.538 127.82 20.892 127.808 21.312H132.812C132.8 20.868 132.728 20.496 132.596 20.196C132.476 19.896 132.308 19.656 132.092 19.476C131.876 19.296 131.618 19.17 131.318 19.098C131.03 19.026 130.718 18.99 130.382 18.99ZM136.774 17.46H139.006L142.048 23.04L145.09 17.46H147.214V27H145.234V20.43L142.714 25.02H141.274L138.754 20.43V27H136.774V17.46ZM152.519 27.198C152.003 27.198 151.541 27.126 151.133 26.982C150.737 26.826 150.401 26.616 150.125 26.352C149.849 26.076 149.639 25.758 149.495 25.398C149.351 25.038 149.279 24.642 149.279 24.21C149.279 23.262 149.561 22.56 150.125 22.104C150.689 21.636 151.517 21.402 152.609 21.402H155.579V20.88C155.579 20.16 155.417 19.668 155.093 19.404C154.781 19.128 154.283 18.99 153.599 18.99C152.987 18.99 152.537 19.086 152.249 19.278C151.961 19.47 151.793 19.734 151.745 20.07H149.819C149.843 19.662 149.945 19.29 150.125 18.954C150.317 18.606 150.575 18.306 150.899 18.054C151.235 17.802 151.637 17.61 152.105 17.478C152.573 17.334 153.101 17.262 153.689 17.262C154.277 17.262 154.805 17.328 155.273 17.46C155.753 17.592 156.161 17.802 156.497 18.09C156.833 18.366 157.091 18.726 157.271 19.17C157.463 19.614 157.559 20.148 157.559 20.772V24.57C157.559 25.074 157.565 25.518 157.577 25.902C157.589 26.274 157.619 26.64 157.667 27H155.867C155.831 26.724 155.801 26.49 155.777 26.298C155.765 26.106 155.759 25.866 155.759 25.578C155.531 26.022 155.135 26.406 154.571 26.73C154.019 27.042 153.335 27.198 152.519 27.198ZM153.059 25.47C153.395 25.47 153.713 25.428 154.013 25.344C154.325 25.248 154.595 25.116 154.823 24.948C155.051 24.768 155.231 24.552 155.363 24.3C155.507 24.036 155.579 23.736 155.579 23.4V22.878H152.969C152.465 22.878 152.057 22.986 151.745 23.202C151.445 23.418 151.295 23.736 151.295 24.156C151.295 24.552 151.433 24.87 151.709 25.11C151.997 25.35 152.447 25.47 153.059 25.47ZM159.994 17.46H161.974V25.308H165.124V17.46H167.104V25.308H170.254V17.46H172.234V27H159.994V17.46ZM178.72 27.198C178.072 27.198 177.472 27.102 176.92 26.91C176.38 26.706 175.906 26.4 175.498 25.992C175.102 25.584 174.79 25.074 174.562 24.462C174.334 23.85 174.22 23.136 174.22 22.32V21.96C174.22 21.192 174.34 20.514 174.58 19.926C174.82 19.338 175.144 18.846 175.552 18.45C175.972 18.054 176.452 17.76 176.992 17.568C177.544 17.364 178.12 17.262 178.72 17.262C179.344 17.262 179.896 17.346 180.376 17.514C180.868 17.682 181.282 17.916 181.618 18.216C181.966 18.504 182.242 18.846 182.446 19.242C182.65 19.638 182.788 20.064 182.86 20.52H180.844C180.724 20.076 180.508 19.71 180.196 19.422C179.884 19.134 179.392 18.99 178.72 18.99C178.384 18.99 178.066 19.05 177.766 19.17C177.466 19.278 177.202 19.452 176.974 19.692C176.746 19.932 176.566 20.244 176.434 20.628C176.302 21 176.236 21.444 176.236 21.96V22.32C176.236 22.884 176.302 23.37 176.434 23.778C176.566 24.174 176.746 24.498 176.974 24.75C177.202 25.002 177.466 25.188 177.766 25.308C178.066 25.416 178.384 25.47 178.72 25.47C179.836 25.47 180.544 24.96 180.844 23.94H182.86C182.764 24.444 182.596 24.9 182.356 25.308C182.128 25.704 181.834 26.046 181.474 26.334C181.114 26.61 180.7 26.826 180.232 26.982C179.764 27.126 179.26 27.198 178.72 27.198ZM188.884 27.198C188.248 27.198 187.648 27.102 187.084 26.91C186.52 26.706 186.022 26.406 185.59 26.01C185.17 25.602 184.834 25.092 184.582 24.48C184.33 23.868 184.204 23.148 184.204 22.32V21.96C184.204 21.168 184.324 20.478 184.564 19.89C184.804 19.302 185.128 18.816 185.536 18.432C185.956 18.036 186.436 17.742 186.976 17.55C187.516 17.358 188.092 17.262 188.704 17.262C190.156 17.262 191.266 17.652 192.034 18.432C192.814 19.212 193.204 20.328 193.204 21.78V22.788H186.22C186.232 23.28 186.31 23.7 186.454 24.048C186.61 24.384 186.808 24.66 187.048 24.876C187.3 25.08 187.582 25.23 187.894 25.326C188.218 25.422 188.548 25.47 188.884 25.47C189.568 25.47 190.066 25.362 190.378 25.146C190.702 24.93 190.924 24.648 191.044 24.3H193.024C192.832 25.248 192.358 25.968 191.602 26.46C190.858 26.952 189.952 27.198 188.884 27.198ZM188.794 18.99C188.458 18.99 188.134 19.032 187.822 19.116C187.522 19.2 187.252 19.338 187.012 19.53C186.784 19.71 186.598 19.95 186.454 20.25C186.31 20.538 186.232 20.892 186.22 21.312H191.224C191.212 20.868 191.14 20.496 191.008 20.196C190.888 19.896 190.72 19.656 190.504 19.476C190.288 19.296 190.03 19.17 189.73 19.098C189.442 19.026 189.13 18.99 188.794 18.99ZM195.186 17.46H197.022V19.062C197.31 18.51 197.736 18.072 198.3 17.748C198.876 17.424 199.524 17.262 200.244 17.262C201.492 17.262 202.476 17.652 203.196 18.432C203.916 19.212 204.276 20.388 204.276 21.96V22.32C204.276 23.136 204.18 23.85 203.988 24.462C203.796 25.074 203.52 25.584 203.16 25.992C202.812 26.388 202.392 26.688 201.9 26.892C201.408 27.096 200.856 27.198 200.244 27.198C199.56 27.198 198.936 27.048 198.372 26.748C197.808 26.448 197.406 26.028 197.166 25.488V30.6H195.186V17.46ZM199.776 25.47C200.52 25.47 201.12 25.212 201.576 24.696C202.032 24.18 202.26 23.388 202.26 22.32V21.96C202.26 20.952 202.038 20.208 201.594 19.728C201.15 19.236 200.544 18.99 199.776 18.99C199.44 18.99 199.116 19.044 198.804 19.152C198.492 19.26 198.21 19.422 197.958 19.638C197.718 19.842 197.526 20.106 197.382 20.43C197.238 20.742 197.166 21.102 197.166 21.51V22.77C197.166 23.226 197.238 23.622 197.382 23.958C197.526 24.294 197.718 24.576 197.958 24.804C198.198 25.032 198.474 25.2 198.786 25.308C199.098 25.416 199.428 25.47 199.776 25.47ZM206.26 17.46H210.76C211.96 17.46 212.83 17.706 213.37 18.198C213.91 18.678 214.18 19.296 214.18 20.052C214.18 20.472 214.054 20.88 213.802 21.276C213.55 21.66 213.196 21.918 212.74 22.05C213.328 22.194 213.772 22.47 214.072 22.878C214.384 23.274 214.54 23.742 214.54 24.282C214.54 25.11 214.264 25.77 213.712 26.262C213.16 26.754 212.296 27 211.12 27H206.26V17.46ZM210.85 25.308C211.498 25.308 211.942 25.206 212.182 25.002C212.434 24.786 212.56 24.486 212.56 24.102C212.56 23.718 212.434 23.43 212.182 23.238C211.942 23.034 211.498 22.932 210.85 22.932H208.24V25.308H210.85ZM210.58 21.384C211.18 21.384 211.6 21.288 211.84 21.096C212.08 20.892 212.2 20.616 212.2 20.268C212.2 19.92 212.08 19.65 211.84 19.458C211.6 19.254 211.18 19.152 210.58 19.152H208.24V21.384H210.58ZM216.526 17.46H218.506V24.21L223.096 17.46H224.986V27H223.006V20.25L218.416 27H216.526V17.46ZM231.472 27.198C230.824 27.198 230.224 27.102 229.672 26.91C229.132 26.706 228.658 26.4 228.25 25.992C227.854 25.584 227.542 25.074 227.314 24.462C227.086 23.85 226.972 23.136 226.972 22.32V21.96C226.972 21.192 227.092 20.514 227.332 19.926C227.572 19.338 227.896 18.846 228.304 18.45C228.724 18.054 229.204 17.76 229.744 17.568C230.296 17.364 230.872 17.262 231.472 17.262C232.096 17.262 232.648 17.346 233.128 17.514C233.62 17.682 234.034 17.916 234.37 18.216C234.718 18.504 234.994 18.846 235.198 19.242C235.402 19.638 235.54 20.064 235.612 20.52H233.596C233.476 20.076 233.26 19.71 232.948 19.422C232.636 19.134 232.144 18.99 231.472 18.99C231.136 18.99 230.818 19.05 230.518 19.17C230.218 19.278 229.954 19.452 229.726 19.692C229.498 19.932 229.318 20.244 229.186 20.628C229.054 21 228.988 21.444 228.988 21.96V22.32C228.988 22.884 229.054 23.37 229.186 23.778C229.318 24.174 229.498 24.498 229.726 24.75C229.954 25.002 230.218 25.188 230.518 25.308C230.818 25.416 231.136 25.47 231.472 25.47C232.588 25.47 233.296 24.96 233.596 23.94H235.612C235.516 24.444 235.348 24.9 235.108 25.308C234.88 25.704 234.586 26.046 234.226 26.334C233.866 26.61 233.452 26.826 232.984 26.982C232.516 27.126 232.012 27.198 231.472 27.198ZM236.866 21.024H242.446V22.896H236.866V21.024ZM249.554 27.198C248.774 27.198 248.048 27.078 247.376 26.838C246.716 26.598 246.14 26.22 245.648 25.704C245.156 25.188 244.766 24.528 244.478 23.724C244.202 22.908 244.064 21.93 244.064 20.79V20.43C244.064 19.338 244.208 18.402 244.496 17.622C244.784 16.83 245.174 16.182 245.666 15.678C246.17 15.174 246.752 14.802 247.412 14.562C248.084 14.322 248.798 14.202 249.554 14.202C250.25 14.202 250.898 14.292 251.498 14.472C252.098 14.64 252.62 14.898 253.064 15.246C253.52 15.594 253.886 16.026 254.162 16.542C254.45 17.058 254.624 17.664 254.684 18.36H252.416C252.26 17.58 251.924 17.01 251.408 16.65C250.904 16.29 250.286 16.11 249.554 16.11C249.158 16.11 248.768 16.182 248.384 16.326C248 16.47 247.652 16.71 247.34 17.046C247.04 17.382 246.794 17.826 246.602 18.378C246.422 18.93 246.332 19.614 246.332 20.43V20.79C246.332 21.654 246.428 22.374 246.62 22.95C246.824 23.526 247.082 23.988 247.394 24.336C247.706 24.684 248.048 24.93 248.42 25.074C248.804 25.218 249.182 25.29 249.554 25.29C250.418 25.29 251.084 25.092 251.552 24.696C252.032 24.288 252.32 23.736 252.416 23.04H254.684C254.612 23.784 254.432 24.42 254.144 24.948C253.856 25.476 253.484 25.908 253.028 26.244C252.584 26.568 252.062 26.808 251.462 26.964C250.874 27.12 250.238 27.198 249.554 27.198Z" fill="white"/>
<path d="M82.7066 45.12C82.2826 45.12 81.8826 45.072 81.5066 44.976C81.1386 44.872 80.8066 44.712 80.5106 44.496C80.2226 44.28 79.9826 44.008 79.7906 43.68C79.5986 43.344 79.4706 42.944 79.4066 42.48H80.6066C80.6786 42.96 80.8906 43.352 81.2426 43.656C81.5946 43.96 82.0826 44.112 82.7066 44.112C82.9546 44.112 83.2106 44.068 83.4746 43.98C83.7386 43.892 83.9826 43.736 84.2066 43.512C84.4306 43.288 84.6186 42.992 84.7706 42.624C84.9226 42.256 85.0106 41.788 85.0346 41.22H81.6866V40.26H85.0346C85.0106 39.732 84.9266 39.292 84.7826 38.94C84.6466 38.58 84.4706 38.292 84.2546 38.076C84.0386 37.86 83.7946 37.708 83.5226 37.62C83.2586 37.532 82.9866 37.488 82.7066 37.488C82.1386 37.488 81.6746 37.624 81.3146 37.896C80.9546 38.168 80.7186 38.576 80.6066 39.12H79.4066C79.4546 38.704 79.5666 38.332 79.7426 38.004C79.9266 37.676 80.1626 37.4 80.4506 37.176C80.7386 36.952 81.0706 36.78 81.4466 36.66C81.8306 36.54 82.2506 36.48 82.7066 36.48C83.1706 36.48 83.6146 36.556 84.0386 36.708C84.4706 36.86 84.8506 37.1 85.1786 37.428C85.5066 37.756 85.7666 38.184 85.9586 38.712C86.1506 39.24 86.2466 39.876 86.2466 40.62V40.86C86.2466 41.636 86.1506 42.296 85.9586 42.84C85.7666 43.376 85.5066 43.816 85.1786 44.16C84.8506 44.496 84.4706 44.74 84.0386 44.892C83.6146 45.044 83.1706 45.12 82.7066 45.12ZM87.9229 38.64H88.9789V41.292H92.2669V38.64H93.3229V45H92.2669V42.228H88.9789V45H87.9229V38.64ZM97.8871 45.12C97.4791 45.12 97.0911 45.056 96.7231 44.928C96.3551 44.8 96.0311 44.604 95.7511 44.34C95.4711 44.068 95.2471 43.728 95.0791 43.32C94.9111 42.912 94.8271 42.432 94.8271 41.88V41.64C94.8271 41.112 94.9071 40.656 95.0671 40.272C95.2271 39.88 95.4391 39.556 95.7031 39.3C95.9751 39.036 96.2871 38.84 96.6391 38.712C96.9991 38.584 97.3751 38.52 97.7671 38.52C98.7031 38.52 99.4271 38.776 99.9391 39.288C100.451 39.8 100.707 40.524 100.707 41.46V42.132H95.8831C95.8831 42.508 95.9431 42.824 96.0631 43.08C96.1831 43.336 96.3391 43.544 96.5311 43.704C96.7231 43.864 96.9351 43.98 97.1671 44.052C97.4071 44.124 97.6471 44.16 97.8871 44.16C98.3671 44.16 98.7351 44.08 98.9911 43.92C99.2551 43.76 99.4431 43.54 99.5551 43.26H100.587C100.523 43.564 100.407 43.832 100.239 44.064C100.079 44.296 99.8791 44.492 99.6391 44.652C99.4071 44.804 99.1391 44.92 98.8351 45C98.5391 45.08 98.2231 45.12 97.8871 45.12ZM97.8271 39.48C97.5791 39.48 97.3391 39.516 97.1071 39.588C96.8751 39.652 96.6671 39.76 96.4831 39.912C96.3071 40.056 96.1631 40.24 96.0511 40.464C95.9391 40.688 95.8831 40.956 95.8831 41.268H99.7111C99.7031 40.94 99.6471 40.664 99.5431 40.44C99.4471 40.208 99.3151 40.024 99.1471 39.888C98.9791 39.744 98.7791 39.64 98.5471 39.576C98.3231 39.512 98.0831 39.48 97.8271 39.48ZM102.208 38.64H103.192V39.84C103.408 39.416 103.708 39.092 104.092 38.868C104.484 38.636 104.936 38.52 105.448 38.52C106.248 38.52 106.888 38.784 107.368 39.312C107.848 39.832 108.088 40.608 108.088 41.64V41.88C108.088 42.424 108.024 42.9 107.896 43.308C107.768 43.708 107.588 44.044 107.356 44.316C107.124 44.58 106.844 44.78 106.516 44.916C106.196 45.052 105.84 45.12 105.448 45.12C104.904 45.12 104.448 45 104.08 44.76C103.72 44.52 103.448 44.22 103.264 43.86V47.4H102.208V38.64ZM105.208 44.184C105.464 44.184 105.704 44.136 105.928 44.04C106.152 43.936 106.344 43.788 106.504 43.596C106.672 43.404 106.8 43.164 106.888 42.876C106.984 42.588 107.032 42.256 107.032 41.88V41.64C107.032 41.296 106.984 40.988 106.888 40.716C106.8 40.444 106.672 40.216 106.504 40.032C106.344 39.84 106.152 39.696 105.928 39.6C105.704 39.504 105.464 39.456 105.208 39.456C104.92 39.456 104.656 39.504 104.416 39.6C104.176 39.688 103.972 39.816 103.804 39.984C103.636 40.144 103.504 40.336 103.408 40.56C103.312 40.784 103.264 41.024 103.264 41.28V42.24C103.264 42.528 103.312 42.792 103.408 43.032C103.504 43.272 103.636 43.476 103.804 43.644C103.972 43.812 104.176 43.944 104.416 44.04C104.656 44.136 104.92 44.184 105.208 44.184ZM109.591 38.64H113.911V39.576H110.647V45H109.591V38.64ZM117.633 45.12C117.225 45.12 116.837 45.056 116.469 44.928C116.101 44.792 115.777 44.592 115.497 44.328C115.217 44.056 114.993 43.716 114.825 43.308C114.657 42.9 114.573 42.424 114.573 41.88V41.64C114.573 41.128 114.657 40.676 114.825 40.284C114.993 39.892 115.217 39.568 115.497 39.312C115.777 39.048 116.101 38.852 116.469 38.724C116.837 38.588 117.225 38.52 117.633 38.52C118.041 38.52 118.429 38.588 118.797 38.724C119.165 38.852 119.489 39.048 119.769 39.312C120.049 39.568 120.273 39.892 120.441 40.284C120.609 40.676 120.693 41.128 120.693 41.64V41.88C120.693 42.424 120.609 42.9 120.441 43.308C120.273 43.716 120.049 44.056 119.769 44.328C119.489 44.592 119.165 44.792 118.797 44.928C118.429 45.056 118.041 45.12 117.633 45.12ZM117.633 44.16C117.873 44.16 118.113 44.12 118.353 44.04C118.593 43.952 118.805 43.82 118.989 43.644C119.173 43.46 119.321 43.224 119.433 42.936C119.553 42.648 119.613 42.296 119.613 41.88V41.64C119.613 41.256 119.553 40.928 119.433 40.656C119.321 40.384 119.173 40.16 118.989 39.984C118.805 39.808 118.593 39.68 118.353 39.6C118.113 39.52 117.873 39.48 117.633 39.48C117.393 39.48 117.153 39.52 116.913 39.6C116.673 39.68 116.461 39.808 116.277 39.984C116.093 40.16 115.941 40.384 115.821 40.656C115.709 40.928 115.653 41.256 115.653 41.64V41.88C115.653 42.296 115.709 42.648 115.821 42.936C115.941 43.224 116.093 43.46 116.277 43.644C116.461 43.82 116.673 43.952 116.913 44.04C117.153 44.12 117.393 44.16 117.633 44.16ZM124.649 45.12C124.241 45.12 123.861 45.056 123.509 44.928C123.157 44.792 122.853 44.592 122.597 44.328C122.341 44.056 122.137 43.716 121.985 43.308C121.841 42.9 121.769 42.424 121.769 41.88V41.64C121.769 41.128 121.849 40.676 122.009 40.284C122.169 39.892 122.381 39.568 122.645 39.312C122.909 39.048 123.213 38.852 123.557 38.724C123.909 38.588 124.273 38.52 124.649 38.52C125.025 38.52 125.361 38.572 125.657 38.676C125.961 38.78 126.221 38.924 126.437 39.108C126.661 39.292 126.841 39.508 126.977 39.756C127.121 40.004 127.225 40.272 127.289 40.56H126.209C126.145 40.408 126.069 40.268 125.981 40.14C125.901 40.004 125.797 39.888 125.669 39.792C125.549 39.696 125.405 39.62 125.237 39.564C125.069 39.508 124.873 39.48 124.649 39.48C124.417 39.48 124.193 39.524 123.977 39.612C123.761 39.692 123.569 39.82 123.401 39.996C123.233 40.164 123.097 40.384 122.993 40.656C122.897 40.928 122.849 41.256 122.849 41.64V41.88C122.849 42.288 122.897 42.64 122.993 42.936C123.097 43.224 123.233 43.46 123.401 43.644C123.569 43.82 123.761 43.952 123.977 44.04C124.193 44.12 124.417 44.16 124.649 44.16C125.041 44.16 125.369 44.064 125.633 43.872C125.905 43.68 126.097 43.416 126.209 43.08H127.289C127.137 43.712 126.825 44.212 126.353 44.58C125.881 44.94 125.313 45.12 124.649 45.12ZM131.368 45.12C130.944 45.12 130.548 45.04 130.18 44.88C129.82 44.72 129.504 44.488 129.232 44.184C128.968 43.872 128.756 43.492 128.596 43.044C128.444 42.596 128.368 42.088 128.368 41.52V41.28C128.368 40.56 128.42 39.92 128.524 39.36C128.628 38.792 128.804 38.312 129.052 37.92C129.308 37.52 129.64 37.208 130.048 36.984C130.464 36.76 130.984 36.632 131.608 36.6C132.112 36.576 132.552 36.556 132.928 36.54C133.304 36.516 133.624 36.436 133.888 36.3V37.32C133.76 37.392 133.524 37.448 133.18 37.488C132.844 37.528 132.38 37.556 131.788 37.572C131.404 37.58 131.064 37.628 130.768 37.716C130.48 37.804 130.232 37.944 130.024 38.136C129.824 38.328 129.664 38.58 129.544 38.892C129.432 39.196 129.36 39.572 129.328 40.02C129.52 39.596 129.816 39.26 130.216 39.012C130.616 38.764 131.08 38.64 131.608 38.64C132.016 38.64 132.388 38.712 132.724 38.856C133.06 38.992 133.348 39.188 133.588 39.444C133.836 39.7 134.028 40.016 134.164 40.392C134.3 40.76 134.368 41.176 134.368 41.64V41.88C134.368 42.376 134.292 42.824 134.14 43.224C133.988 43.616 133.78 43.956 133.516 44.244C133.252 44.524 132.936 44.74 132.568 44.892C132.2 45.044 131.8 45.12 131.368 45.12ZM131.368 44.16C131.928 44.16 132.388 43.968 132.748 43.584C133.108 43.192 133.288 42.624 133.288 41.88V41.64C133.288 41.328 133.24 41.048 133.144 40.8C133.048 40.552 132.916 40.34 132.748 40.164C132.58 39.98 132.376 39.84 132.136 39.744C131.904 39.648 131.648 39.6 131.368 39.6C131.088 39.6 130.828 39.648 130.588 39.744C130.356 39.84 130.156 39.98 129.988 40.164C129.82 40.34 129.688 40.552 129.592 40.8C129.496 41.048 129.448 41.328 129.448 41.64V41.88C129.448 42.232 129.496 42.552 129.592 42.84C129.696 43.12 129.836 43.36 130.012 43.56C130.188 43.752 130.392 43.9 130.624 44.004C130.856 44.108 131.104 44.16 131.368 44.16ZM135.864 38.64H136.92V41.04H138.204C139.004 41.04 139.592 41.216 139.968 41.568C140.352 41.92 140.544 42.408 140.544 43.032C140.544 43.64 140.352 44.12 139.968 44.472C139.592 44.824 139.004 45 138.204 45H135.864V38.64ZM138.144 44.064C138.64 44.064 138.988 43.976 139.188 43.8C139.388 43.624 139.488 43.364 139.488 43.02C139.488 42.676 139.388 42.416 139.188 42.24C138.988 42.064 138.64 41.976 138.144 41.976H136.92V44.064H138.144ZM141.528 38.64H142.584V45H141.528V38.64ZM145.953 39.576H143.781V38.64H149.181V39.576H147.009V45H145.953V39.576ZM152.907 45.12C152.499 45.12 152.111 45.056 151.743 44.928C151.375 44.792 151.051 44.592 150.771 44.328C150.491 44.056 150.267 43.716 150.099 43.308C149.931 42.9 149.847 42.424 149.847 41.88V41.64C149.847 41.128 149.931 40.676 150.099 40.284C150.267 39.892 150.491 39.568 150.771 39.312C151.051 39.048 151.375 38.852 151.743 38.724C152.111 38.588 152.499 38.52 152.907 38.52C153.315 38.52 153.703 38.588 154.071 38.724C154.439 38.852 154.763 39.048 155.043 39.312C155.323 39.568 155.547 39.892 155.715 40.284C155.883 40.676 155.967 41.128 155.967 41.64V41.88C155.967 42.424 155.883 42.9 155.715 43.308C155.547 43.716 155.323 44.056 155.043 44.328C154.763 44.592 154.439 44.792 154.071 44.928C153.703 45.056 153.315 45.12 152.907 45.12ZM152.907 44.16C153.147 44.16 153.387 44.12 153.627 44.04C153.867 43.952 154.079 43.82 154.263 43.644C154.447 43.46 154.595 43.224 154.707 42.936C154.827 42.648 154.887 42.296 154.887 41.88V41.64C154.887 41.256 154.827 40.928 154.707 40.656C154.595 40.384 154.447 40.16 154.263 39.984C154.079 39.808 153.867 39.68 153.627 39.6C153.387 39.52 153.147 39.48 152.907 39.48C152.667 39.48 152.427 39.52 152.187 39.6C151.947 39.68 151.735 39.808 151.551 39.984C151.367 40.16 151.215 40.384 151.095 40.656C150.983 40.928 150.927 41.256 150.927 41.64V41.88C150.927 42.296 150.983 42.648 151.095 42.936C151.215 43.224 151.367 43.46 151.551 43.644C151.735 43.82 151.947 43.952 152.187 44.04C152.427 44.12 152.667 44.16 152.907 44.16ZM157.462 38.64H160.222C161.006 38.64 161.582 38.804 161.95 39.132C162.318 39.452 162.502 39.868 162.502 40.38C162.502 40.516 162.478 40.656 162.43 40.8C162.382 40.936 162.314 41.064 162.226 41.184C162.146 41.304 162.046 41.408 161.926 41.496C161.814 41.584 161.686 41.652 161.542 41.7C161.934 41.796 162.23 41.98 162.43 42.252C162.638 42.516 162.742 42.828 162.742 43.188C162.742 43.74 162.558 44.18 162.19 44.508C161.822 44.836 161.246 45 160.462 45H157.462V38.64ZM160.462 44.064C160.91 44.064 161.226 43.984 161.41 43.824C161.594 43.664 161.686 43.436 161.686 43.14C161.686 42.836 161.594 42.604 161.41 42.444C161.226 42.276 160.91 42.192 160.462 42.192H158.518V44.064H160.462ZM160.222 41.328C160.678 41.328 160.994 41.248 161.17 41.088C161.354 40.928 161.446 40.708 161.446 40.428C161.446 40.164 161.354 39.956 161.17 39.804C160.994 39.652 160.678 39.576 160.222 39.576H158.518V41.328H160.222ZM166.059 45.12C165.707 45.12 165.395 45.072 165.123 44.976C164.859 44.872 164.635 44.732 164.451 44.556C164.267 44.38 164.127 44.172 164.031 43.932C163.935 43.692 163.887 43.428 163.887 43.14C163.887 42.508 164.071 42.052 164.439 41.772C164.815 41.492 165.351 41.352 166.047 41.352H168.111V40.92C168.111 40.376 167.987 40 167.739 39.792C167.499 39.584 167.135 39.48 166.647 39.48C166.191 39.48 165.859 39.568 165.651 39.744C165.443 39.912 165.327 40.104 165.303 40.32H164.247C164.263 40.064 164.331 39.828 164.451 39.612C164.579 39.388 164.747 39.196 164.955 39.036C165.171 38.876 165.427 38.752 165.723 38.664C166.019 38.568 166.347 38.52 166.707 38.52C167.459 38.52 168.055 38.7 168.495 39.06C168.943 39.412 169.167 39.992 169.167 40.8V43.38C169.167 43.716 169.167 44.012 169.167 44.268C169.175 44.516 169.195 44.76 169.227 45H168.303C168.279 44.816 168.263 44.644 168.255 44.484C168.247 44.316 168.243 44.128 168.243 43.92C168.075 44.256 167.803 44.54 167.427 44.772C167.051 45.004 166.595 45.12 166.059 45.12ZM166.287 44.16C166.535 44.16 166.767 44.128 166.983 44.064C167.207 43.992 167.403 43.892 167.571 43.764C167.739 43.628 167.871 43.464 167.967 43.272C168.063 43.08 168.111 42.856 168.111 42.6V42.168H166.227C165.835 42.168 165.527 42.248 165.303 42.408C165.079 42.56 164.967 42.804 164.967 43.14C164.967 43.436 165.071 43.68 165.279 43.872C165.495 44.064 165.831 44.16 166.287 44.16ZM172.28 42.48C171.752 42.36 171.372 42.144 171.14 41.832C170.908 41.512 170.792 41.104 170.792 40.608C170.792 39.984 170.98 39.5 171.356 39.156C171.74 38.812 172.352 38.64 173.192 38.64H175.952V45H174.896V42.576H173.276L171.728 45H170.552L172.28 42.48ZM171.848 40.608C171.848 40.944 171.944 41.2 172.136 41.376C172.336 41.552 172.668 41.64 173.132 41.64H174.896V39.576H173.132C172.668 39.576 172.336 39.664 172.136 39.84C171.944 40.016 171.848 40.272 171.848 40.608ZM180.876 38.64H181.932V41.304H182.772L185.148 38.64H186.396L183.636 41.688L186.516 45H185.172L182.772 42.216H181.932V45H180.876V38.64ZM190.184 45.12C189.776 45.12 189.388 45.056 189.02 44.928C188.652 44.792 188.328 44.592 188.048 44.328C187.768 44.056 187.544 43.716 187.376 43.308C187.208 42.9 187.124 42.424 187.124 41.88V41.64C187.124 41.128 187.208 40.676 187.376 40.284C187.544 39.892 187.768 39.568 188.048 39.312C188.328 39.048 188.652 38.852 189.02 38.724C189.388 38.588 189.776 38.52 190.184 38.52C190.592 38.52 190.98 38.588 191.348 38.724C191.716 38.852 192.04 39.048 192.32 39.312C192.6 39.568 192.824 39.892 192.992 40.284C193.16 40.676 193.244 41.128 193.244 41.64V41.88C193.244 42.424 193.16 42.9 192.992 43.308C192.824 43.716 192.6 44.056 192.32 44.328C192.04 44.592 191.716 44.792 191.348 44.928C190.98 45.056 190.592 45.12 190.184 45.12ZM190.184 44.16C190.424 44.16 190.664 44.12 190.904 44.04C191.144 43.952 191.356 43.82 191.54 43.644C191.724 43.46 191.872 43.224 191.984 42.936C192.104 42.648 192.164 42.296 192.164 41.88V41.64C192.164 41.256 192.104 40.928 191.984 40.656C191.872 40.384 191.724 40.16 191.54 39.984C191.356 39.808 191.144 39.68 190.904 39.6C190.664 39.52 190.424 39.48 190.184 39.48C189.944 39.48 189.704 39.52 189.464 39.6C189.224 39.68 189.012 39.808 188.828 39.984C188.644 40.16 188.492 40.384 188.372 40.656C188.26 40.928 188.204 41.256 188.204 41.64V41.88C188.204 42.296 188.26 42.648 188.372 42.936C188.492 43.224 188.644 43.46 188.828 43.644C189.012 43.82 189.224 43.952 189.464 44.04C189.704 44.12 189.944 44.16 190.184 44.16ZM194.739 38.64H195.867L198.135 42.6L200.403 38.64H201.459V45H200.403V40.38L198.519 43.62H197.679L195.795 40.38V45H194.739V38.64ZM203.376 38.64H208.656V45H207.6V39.576H204.432V45H203.376V38.64ZM212.383 45.12C212.031 45.12 211.719 45.072 211.447 44.976C211.183 44.872 210.959 44.732 210.775 44.556C210.591 44.38 210.451 44.172 210.355 43.932C210.259 43.692 210.211 43.428 210.211 43.14C210.211 42.508 210.395 42.052 210.763 41.772C211.139 41.492 211.675 41.352 212.371 41.352H214.435V40.92C214.435 40.376 214.311 40 214.063 39.792C213.823 39.584 213.459 39.48 212.971 39.48C212.515 39.48 212.183 39.568 211.975 39.744C211.767 39.912 211.651 40.104 211.627 40.32H210.571C210.587 40.064 210.655 39.828 210.775 39.612C210.903 39.388 211.071 39.196 211.279 39.036C211.495 38.876 211.751 38.752 212.047 38.664C212.343 38.568 212.671 38.52 213.031 38.52C213.783 38.52 214.379 38.7 214.819 39.06C215.267 39.412 215.491 39.992 215.491 40.8V43.38C215.491 43.716 215.491 44.012 215.491 44.268C215.499 44.516 215.519 44.76 215.551 45H214.627C214.603 44.816 214.587 44.644 214.579 44.484C214.571 44.316 214.567 44.128 214.567 43.92C214.399 44.256 214.127 44.54 213.751 44.772C213.375 45.004 212.919 45.12 212.383 45.12ZM212.611 44.16C212.859 44.16 213.091 44.128 213.307 44.064C213.531 43.992 213.727 43.892 213.895 43.764C214.063 43.628 214.195 43.464 214.291 43.272C214.387 43.08 214.435 42.856 214.435 42.6V42.168H212.551C212.159 42.168 211.851 42.248 211.627 42.408C211.403 42.56 211.291 42.804 211.291 43.14C211.291 43.436 211.395 43.68 211.603 43.872C211.819 44.064 212.155 44.16 212.611 44.16ZM217.356 38.64H218.412V41.292H221.7V38.64H222.756V45H221.7V42.228H218.412V45H217.356V38.64ZM224.681 38.64H225.737V43.44L229.025 38.64H230.081V45H229.025V40.2L225.737 45H224.681V38.64ZM233.253 42.48C232.725 42.36 232.345 42.144 232.113 41.832C231.881 41.512 231.765 41.104 231.765 40.608C231.765 39.984 231.953 39.5 232.329 39.156C232.713 38.812 233.325 38.64 234.165 38.64H236.925V45H235.869V42.576H234.249L232.701 45H231.525L233.253 42.48ZM232.821 40.608C232.821 40.944 232.917 41.2 233.109 41.376C233.309 41.552 233.641 41.64 234.105 41.64H235.869V39.576H234.105C233.641 39.576 233.309 39.664 233.109 39.84C232.917 40.016 232.821 40.272 232.821 40.608Z" fill="#04BA71"/>
<defs>
<linearGradient id="paint0_linear_62_184" x1="31.9033" y1="4.59834" x2="31.9033" y2="50" gradientUnits="userSpaceOnUse">
<stop stop-color="#04BA71"/>
<stop offset="1" stop-color="#52E34F"/>
</linearGradient>
<linearGradient id="paint1_linear_62_184" x1="41.9999" y1="8.50003" x2="23.4999" y2="12" gradientUnits="userSpaceOnUse">
<stop stop-color="#04BA71"/>
<stop offset="1" stop-color="#52E34F"/>
</linearGradient>
</defs>
</svg>
